<svg xmlns="http://www.w3.org/2000/svg" xmlns:xlink="http://www.w3.org/1999/xlink" width="375.005" height="449.504" viewBox="0 0 375.005 449.504"><defs><linearGradient id="a" x1="-6.08" y1="8.759" x2="3.84" y2="-4.069" gradientUnits="objectBoundingBox"><stop offset="0" stop-color="#002961"/><stop offset="0.39" stop-color="#022960"/><stop offset="0.53" stop-color="#09285e"/><stop offset="0.62" stop-color="#14275a"/><stop offset="0.7" stop-color="#252555"/><stop offset="0.77" stop-color="#3b234e"/><stop offset="0.83" stop-color="#572145"/><stop offset="0.89" stop-color="#771d3a"/><stop offset="0.94" stop-color="#9d1a2e"/><stop offset="0.98" stop-color="#c61620"/><stop offset="1" stop-color="#d6141b"/></linearGradient><linearGradient id="b" x1="-7.167" y1="10.571" x2="3.167" y2="-2.679" xlink:href="#a"/><linearGradient id="c" x1="-5" y1="7.677" x2="4.538" y2="-4.323" xlink:href="#a"/><linearGradient id="d" x1="-6.458" y1="8.897" x2="3.875" y2="-3.931" xlink:href="#a"/><linearGradient id="e" x1="-8.522" y1="11.321" x2="2.261" y2="-1.964" xlink:href="#a"/><linearGradient id="f" x1="-7.074" y1="9.576" x2="2.074" y2="-1.697" xlink:href="#a"/><linearGradient id="g" x1="-5.929" y1="8.939" x2="2.929" y2="-2.333" xlink:href="#a"/><linearGradient id="h" x1="-5.375" y1="8.034" x2="4.958" y2="-4.793" xlink:href="#a"/><linearGradient id="i" x1="-3.296" y1="5.563" x2="5.889" y2="-6.063" xlink:href="#a"/><linearGradient id="j" x1="-4.036" y1="6.188" x2="4.821" y2="-5.438" xlink:href="#a"/><linearGradient id="k" x1="-5.583" y1="8.571" x2="4.75" y2="-4.714" xlink:href="#a"/><linearGradient id="l" x1="-7.182" y1="9.962" x2="4.091" y2="-4.308" xlink:href="#a"/><linearGradient id="m" x1="-7.609" y1="10.714" x2="3.174" y2="-2.571" xlink:href="#a"/><linearGradient id="n" x1="-8.44" y1="11.933" x2="1.48" y2="-0.467" xlink:href="#a"/><linearGradient id="o" x1="-8.923" y1="12.097" x2="0.615" y2="0.097" xlink:href="#a"/><linearGradient id="p" x1="-7.103" y1="10.471" x2="1.448" y2="-0.441" xlink:href="#a"/><linearGradient id="q" x1="-6.065" y1="8.722" x2="1.935" y2="-1.611" xlink:href="#a"/><linearGradient id="r" x1="-5.621" y1="8.588" x2="2.931" y2="-2.353" xlink:href="#a"/><linearGradient id="s" x1="-5.731" y1="8.065" x2="3.808" y2="-3.903" xlink:href="#a"/><linearGradient id="t" x1="-4.111" y1="6.29" x2="5.074" y2="-5.71" xlink:href="#a"/><linearGradient id="u" x1="-2.704" y1="4.312" x2="6.481" y2="-7.312" xlink:href="#a"/><linearGradient id="v" x1="-3.72" y1="6" x2="6.2" y2="-6.4" xlink:href="#a"/><linearGradient id="w" x1="-4.875" y1="7.143" x2="5.458" y2="-6.143" xlink:href="#a"/><linearGradient id="x" x1="-7.368" y1="10.909" x2="5.684" y2="-6" xlink:href="#a"/><linearGradient id="y" x1="-8.609" y1="11.464" x2="2.174" y2="-1.821" xlink:href="#a"/><linearGradient id="z" x1="-8.192" y1="11.677" x2="1.308" y2="-0.29" xlink:href="#a"/><linearGradient id="aa" x1="-9.792" y1="13.034" x2="0.542" y2="0.207" xlink:href="#a"/><linearGradient id="ab" x1="-10.87" y1="14.786" x2="-0.087" y2="1.5" xlink:href="#a"/><linearGradient id="ac" x1="-7.6" y1="10.389" x2="0.633" y2="0.056" xlink:href="#a"/><linearGradient id="ad" x1="-6.516" y1="9.833" x2="1.484" y2="-0.5" xlink:href="#a"/><linearGradient id="ae" x1="-6.679" y1="9.088" x2="2.179" y2="-1.853" xlink:href="#a"/><linearGradient id="af" x1="-5.04" y1="7.667" x2="4.88" y2="-4.733" xlink:href="#a"/><linearGradient id="ag" x1="-4.36" y1="6.333" x2="5.56" y2="-6.067" xlink:href="#a"/><linearGradient id="ah" x1="-3.52" y1="5.767" x2="6.4" y2="-6.633" xlink:href="#a"/><linearGradient id="ai" x1="-2.08" y1="4" x2="7.84" y2="-8.4" xlink:href="#a"/><linearGradient id="aj" x1="-3.04" y1="4.828" x2="6.88" y2="-8" xlink:href="#a"/><linearGradient id="ak" x1="-4.95" y1="7.542" x2="7.45" y2="-7.958" xlink:href="#a"/><linearGradient id="al" x1="-7.176" y1="10" x2="7.412" y2="-8.6" xlink:href="#a"/><linearGradient id="am" x1="-9" y1="11.864" x2="4.778" y2="-5.045" xlink:href="#a"/><linearGradient id="an" x1="-8.091" y1="11.654" x2="3.182" y2="-2.654" xlink:href="#a"/><linearGradient id="ao" x1="-8.464" y1="11.636" x2="0.393" y2="0.364" xlink:href="#a"/><linearGradient id="ap" x1="-11.5" y1="16" x2="-0.227" y2="1.731" xlink:href="#a"/><linearGradient id="aq" x1="-13.7" y1="18" x2="-1.3" y2="2.542" xlink:href="#a"/><linearGradient id="ar" x1="-12.905" y1="16.538" x2="-1.095" y2="2.231" xlink:href="#a"/><linearGradient id="as" x1="-9.84" y1="13.7" x2="0.08" y2="1.3" xlink:href="#a"/><linearGradient id="at" x1="-7.793" y1="10.882" x2="0.724" y2="-0.059" xlink:href="#a"/><linearGradient id="au" x1="-7.481" y1="10.875" x2="1.704" y2="-0.75" xlink:href="#a"/><linearGradient id="av" x1="-6.52" y1="9.567" x2="3.36" y2="-2.833" xlink:href="#a"/><linearGradient id="aw" x1="-5.88" y1="8.483" x2="4.04" y2="-4.345" xlink:href="#a"/><linearGradient id="ax" x1="-2.84" y1="4.586" x2="7.08" y2="-8.241" xlink:href="#a"/><linearGradient id="ay" x1="-2" y1="3.867" x2="7.92" y2="-8.533" xlink:href="#a"/><linearGradient id="az" x1="-9.667" y1="13.444" x2="6.867" y2="-7.222" xlink:href="#a"/><linearGradient id="ba" x1="-8" y1="11.207" x2="1.92" y2="-1.586" xlink:href="#a"/><linearGradient id="bb" x1="-7.345" y1="10.794" x2="1.207" y2="-0.147" xlink:href="#a"/><linearGradient id="bc" x1="-11.087" y1="15.036" x2="-0.304" y2="1.75" xlink:href="#a"/><linearGradient id="bd" x1="-13.143" y1="18.167" x2="-1.333" y2="2.667" xlink:href="#a"/><linearGradient id="be" x1="-19.733" y1="26.056" x2="-3.2" y2="5.389" xlink:href="#a"/><linearGradient id="bf" x1="-28.636" y1="37.231" x2="-6.091" y2="8.615" xlink:href="#a"/><linearGradient id="bg" x1="-21" y1="29" x2="-3.286" y2="5.75" xlink:href="#a"/><linearGradient id="bh" x1="-12.81" y1="17.04" x2="-1" y2="2.16" xlink:href="#a"/><linearGradient id="bi" x1="-10.652" y1="14.5" x2="0.13" y2="1.214" xlink:href="#a"/><linearGradient id="bj" x1="-9.783" y1="12.964" x2="3.84" y2="-0.321" xlink:href="#a"/><linearGradient id="bk" x1="-9.762" y1="14.167" x2="2.048" y2="-1.333" xlink:href="#a"/><linearGradient id="bl" x1="-8.409" y1="11.577" x2="2.818" y2="-2.692" xlink:href="#a"/><linearGradient id="bm" x1="-1.545" y1="2.846" x2="9.727" y2="-11.423" xlink:href="#a"/><linearGradient id="bn" x1="-10.25" y1="13.2" x2="5.187" y2="-5.4" xlink:href="#a"/><linearGradient id="bo" x1="-7.826" y1="10.964" x2="2.957" y2="-2.286" xlink:href="#a"/><linearGradient id="bp" x1="-18.625" y1="24.895" x2="-3.125" y2="5.316" xlink:href="#a"/><linearGradient id="bq" x1="-24.385" y1="30.562" x2="-5.308" y2="7.312" xlink:href="#a"/><linearGradient id="br" x1="-68.2" y1="86.667" x2="-18.8" y2="24.667" xlink:href="#a"/><linearGradient id="bs" x1="-34.778" y1="43.636" x2="-7.222" y2="9.818" xlink:href="#a"/><linearGradient id="bt" x1="-24.417" y1="32.857" x2="-3.833" y2="6.286" xlink:href="#a"/><linearGradient id="bu" x1="-15.765" y1="20.95" x2="-1.176" y2="2.4" xlink:href="#a"/><linearGradient id="bv" x1="-14.529" y1="19.9" x2="0" y2="1.35" xlink:href="#a"/><linearGradient id="bw" x1="-17.385" y1="22.063" x2="1.692" y2="-1.188" xlink:href="#a"/><linearGradient id="bx" x1="-48.857" y1="65.5" x2="-13.429" y2="19" xlink:href="#a"/><linearGradient id="by" x1="-89.499" y1="108.2" x2="-27.5" y2="33.8" xlink:href="#a"/><linearGradient id="bz" x1="-178" y1="178.66" x2="-54" y2="54.666" xlink:href="#a"/><linearGradient id="ca" x1="-85" y1="128.75" x2="-23" y2="35.75" xlink:href="#a"/><linearGradient id="cb" x1="-52" y1="59.25" x2="-10.667" y2="12.75" xlink:href="#a"/><linearGradient id="cc" x1="-32.667" y1="45.4" x2="-5.111" y2="8.2" xlink:href="#a"/><linearGradient id="cd" x1="-29.778" y1="37.455" x2="-2.222" y2="3.636" xlink:href="#a"/><linearGradient id="ce" x1="-27.889" y1="35.545" x2="-0.333" y2="1.727" xlink:href="#a"/><linearGradient id="cf" x1="-384.01" y1="577.99" x2="-136" y2="206" xlink:href="#a"/><linearGradient id="cg" x1="-354" y1="531.01" x2="-106" y2="160" xlink:href="#a"/><linearGradient id="ch" x1="-169.5" y1="170.33" x2="-45.5" y2="46.333" xlink:href="#a"/><linearGradient id="ci" x1="-77.5" y1="93.801" x2="-15.5" y2="19.4" xlink:href="#a"/><linearGradient id="cj" x1="-58.8" y1="89.601" x2="-9.2" y2="15.2" xlink:href="#a"/><linearGradient id="ck" x1="-66.75" y1="101" x2="-4.75" y2="8" xlink:href="#a"/><linearGradient id="cl" x1="-309" y1="464" x2="-61" y2="92" xlink:href="#a"/><linearGradient id="cm" x1="-294" y1="442" x2="-46" y2="70" xlink:href="#a"/></defs><g transform="translate(0 -117.5)"><path d="M21.859,19.762,1.39,31.225V7.48Z" transform="translate(112.42 400.68)" fill="url(#a)"/><path d="M21.891,30.416,2.24,18.953,21.891,7.49Z" transform="translate(181.17 401.49)" fill="url(#b)"/><path d="M22.818,33.262,1.53,20.98,22.818,7.88Z" transform="translate(123.74 433.04)" fill="url(#c)"/><path d="M21.741,20.172,2.09,31.635V7.89Z" transform="translate(169.04 433.84)" fill="url(#d)"/><path d="M21.622,18.953,2.79,30.416V7.49Z" transform="translate(225.65 401.49)" fill="url(#e)"/><path d="M24.187,20.16,2.08,34.08V7.06Z" transform="translate(168.23 366.72)" fill="url(#f)"/><path d="M24.446,34.08,1.52,20.16,24.446,7.06Z" transform="translate(122.93 366.72)" fill="url(#g)"/><path d="M20.5,31.225.85,19.762,20.5,7.48Z" transform="translate(68.746 400.68)" fill="url(#h)"/><path d="M22.937,34.491.83,21.39,22.937,8.29Z" transform="translate(67.129 466.2)" fill="url(#i)"/><path d="M24.306,21.39,1.38,34.491V8.29Z" transform="translate(111.61 466.2)" fill="url(#j)"/><path d="M21.891,31.236,2.24,19.773,21.891,8.31Z" transform="translate(181.17 467.81)" fill="url(#k)"/><path d="M20.8,18.964,2.79,29.608V8.32Z" transform="translate(225.65 468.62)" fill="url(#l)"/><path d="M21.772,30.826,2.94,19.363,21.772,7.9Z" transform="translate(237.78 434.65)" fill="url(#m)"/><path d="M23.4,31.633,2.93,19.352,23.4,7.07Z" transform="translate(236.97 367.52)" fill="url(#n)"/><path d="M24.068,18.942,2.78,32.042V6.66Z" transform="translate(224.84 334.37)" fill="url(#o)"/><path d="M25.955,34.478,2.21,20.559,25.955,6.64Z" transform="translate(178.74 332.75)" fill="url(#p)"/><path d="M26.752,21.368,1.37,36.106V6.63Z" transform="translate(110.8 331.94)" fill="url(#q)"/><path d="M24.565,34.478.82,20.559,24.565,6.64Z" transform="translate(66.32 332.75)" fill="url(#r)"/><path d="M21.978,19.352.69,32.452V7.07Z" transform="translate(55.806 367.52)" fill="url(#s)"/><path d="M22.8,20.98.69,33.262V7.88Z" transform="translate(55.806 433.04)" fill="url(#t)"/><path d="M22.8,21.8.69,34.9V8.7Z" transform="translate(55.806 499.36)" fill="url(#u)"/><path d="M22.009,33.273,1.54,20.992,22.009,8.71Z" transform="translate(124.55 500.16)" fill="url(#v)"/><path d="M21.741,20.183,2.09,31.646V8.72Z" transform="translate(169.04 500.97)" fill="url(#w)"/><path d="M18.527,26.763,2.97,17.756,18.527,8.75Z" transform="translate(240.21 503.4)" fill="url(#x)"/><path d="M22.312,19.363,3.48,30.826V7.9Z" transform="translate(281.46 434.65)" fill="url(#y)"/><path d="M24.908,32.852,3.62,20.57,24.908,7.47Z" transform="translate(292.78 399.88)" fill="url(#z)"/><path d="M23.131,18.543,3.48,30.825V7.08Z" transform="translate(281.46 368.33)" fill="url(#aa)"/><path d="M21.772,29.186,2.94,17.723,21.772,6.26Z" transform="translate(237.78 302.01)" fill="url(#ab)"/><path d="M26.633,20.958,2.07,35.7V6.22Z" transform="translate(167.42 298.78)" fill="url(#ac)"/><path d="M26.882,35.7,1.5,20.958,26.882,6.22Z" transform="translate(121.32 298.78)" fill="url(#ad)"/><path d="M23.616,20.149.69,34.068V6.23Z" transform="translate(55.806 299.59)" fill="url(#ae)"/><path d="M20.619,31.633.15,19.352,20.619,7.07Z" transform="translate(12.132 367.52)" fill="url(#af)"/><path d="M20.469,19.762,0,32.043V7.48Z" transform="translate(0 400.68)" fill="url(#ag)"/><path d="M20.619,32.453.15,20.172,20.619,7.89Z" transform="translate(12.132 433.84)" fill="url(#ah)"/><path d="M21.309,33.683.84,21.4,21.309,9.12Z" transform="translate(67.937 533.32)" fill="url(#ai)"/><path d="M21.859,20.593,1.39,32.874V9.13Z" transform="translate(112.42 534.13)" fill="url(#aj)"/><path d="M18.646,28.8,2.27,18.975,18.646,9.15Z" transform="translate(183.59 535.75)" fill="url(#ak)"/><path d="M16.729,17.358,2.81,25.546V9.17Z" transform="translate(227.27 537.37)" fill="url(#al)"/><path d="M18.238,17.756,3.5,26.763V8.75Z" transform="translate(283.07 503.4)" fill="url(#am)"/><path d="M21.653,29.608,3.64,18.964,21.653,8.32Z" transform="translate(294.4 468.62)" fill="url(#an)"/><path d="M27.086,21.379,4.16,34.48V7.46Z" transform="translate(336.45 399.07)" fill="url(#ao)"/><path d="M21.653,27.968,3.64,17.324,21.653,6.68Z" transform="translate(294.4 335.98)" fill="url(#ap)"/><path d="M19.866,16.1,3.49,25.931V6.28Z" transform="translate(282.26 303.63)" fill="url(#aq)"/><path d="M19.984,16.5,2.79,27.148V5.86Z" transform="translate(225.65 269.66)" fill="url(#ar)"/><path d="M22.7,30.4,2.23,18.122,22.7,5.84Z" transform="translate(180.36 268.05)" fill="url(#as)"/><path d="M25.125,19.739,1.38,33.658V5.82Z" transform="translate(111.61 266.43)" fill="url(#at)"/><path d="M22.937,32.031.83,18.93,22.937,5.83Z" transform="translate(67.129 267.24)" fill="url(#au)"/><path d="M20.619,30.813.15,18.532,20.619,6.25Z" transform="translate(12.132 301.21)" fill="url(#av)"/><path d="M20.469,18.133,0,30.415V6.67Z" transform="translate(0 335.17)" fill="url(#aw)"/><path d="M20.469,20.582,0,32.045V8.3Z" transform="translate(0 467)" fill="url(#ax)"/><path d="M20.619,33.273.15,20.992,20.619,8.71Z" transform="translate(12.132 500.16)" fill="url(#ay)"/><path d="M15.972,23.918,3.69,16.549,15.972,9.18Z" transform="translate(298.44 538.18)" fill="url(#az)"/><path d="M24.639,20.582,4.17,32.045V8.3Z" transform="translate(337.26 467)" fill="url(#ba)"/><path d="M28.035,35.708,4.29,21.789,28.035,7.87Z" transform="translate(346.97 432.23)" fill="url(#bb)"/><path d="M23.162,30.006,4.33,18.543,23.162,7.08Z" transform="translate(350.2 368.33)" fill="url(#bc)"/><path d="M21.374,16.515,4.18,26.341V6.69Z" transform="translate(338.07 336.79)" fill="url(#bd)"/><path d="M15.972,20.638,3.69,13.269,15.972,5.9Z" transform="translate(298.44 272.9)" fill="url(#be)"/><path d="M12.527,11.241,3.52,16.154V5.51Z" transform="translate(284.69 241.36)" fill="url(#bf)"/><path d="M14.463,18.6,3,12.05,14.463,5.5Z" transform="translate(242.63 240.55)" fill="url(#bg)"/><path d="M19.294,16.094,2.1,25.919V5.45Z" transform="translate(169.84 236.5)" fill="url(#bh)"/><path d="M20.382,28.366,1.55,16.9,20.382,5.44Z" transform="translate(125.36 235.7)" fill="url(#bi)"/><path d="M19.532,16.9.7,28.366V5.44Z" transform="translate(56.614 235.7)" fill="url(#bj)"/><path d="M17.374,25.111.18,15.285,17.374,5.46Z" transform="translate(14.558 237.31)" fill="url(#bk)"/><path d="M18.023,16.5.01,27.148V5.86Z" transform="translate(0.809 269.66)" fill="url(#bl)"/><path d="M18.023,19.784.01,30.428V9.14Z" transform="translate(0.809 534.94)" fill="url(#bm)"/><path d="M17.3,17.358,4.2,25.546V9.17Z" transform="translate(339.69 537.37)" fill="url(#bn)"/><path d="M23.162,31.646,4.33,20.183,23.162,8.72Z" transform="translate(350.2 500.97)" fill="url(#bo)"/><path d="M17.48,21.867,4.38,13.679,17.48,6.31Z" transform="translate(354.24 306.06)" fill="url(#bp)"/><path d="M14.854,12.46,4.21,19.01V5.91Z" transform="translate(340.5 273.71)" fill="url(#bq)"/><path d="M7.854,10.053,3.76,7.6,7.854,5.14Z" transform="translate(304.1 211.43)" fill="url(#br)"/><path d="M10.2,10.023,2.83,14.117V5.11Z" transform="translate(228.88 209)" fill="url(#bs)"/><path d="M12.145,16.563,2.32,10.831,12.145,5.1Z" transform="translate(187.64 208.2)" fill="url(#bt)"/><path d="M15.339,13.258,1.42,21.446V5.07Z" transform="translate(114.85 205.77)" fill="url(#bu)"/><path d="M14.819,21.446.9,13.258,14.819,5.07Z" transform="translate(72.79 205.77)" fill="url(#bv)"/><path d="M10.684,11.64.04,18.19V5.09Z" transform="translate(3.235 207.39)" fill="url(#bw)"/><path d="M10.171,12.09,4.44,8.815,10.171,5.54Z" transform="translate(359.1 243.78)" fill="url(#bx)"/><path d="M7.515,7.6,4.24,9.234V5.14Z" transform="translate(342.92 211.43)" fill="url(#by)"/><path d="M5.188,6.378,3.55,7.2V4.74Z" transform="translate(287.12 179.08)" fill="url(#bz)"/><path d="M6.345,8.015,3.07,6.378,6.345,4.74Z" transform="translate(248.3 179.08)" fill="url(#ca)"/><path d="M7.063,8,2.15,11.27V4.72Z" transform="translate(173.89 177.46)" fill="url(#cb)"/><path d="M9.019,12.9,1.65,8.8,9.019,4.71Z" transform="translate(133.45 176.65)" fill="url(#cc)"/><path d="M8.119,9.613.75,13.707V4.7Z" transform="translate(60.658 175.84)" fill="url(#cd)"/><path d="M7.629,13.707.26,9.613,7.629,4.7Z" transform="translate(21.028 175.84)" fill="url(#ce)"/><path d="M5.3,5.569H4.48L5.3,4.75Z" transform="translate(362.33 179.89)" fill="url(#cf)"/><path d="M3.679,4.34l-.819.819V4.34Z" transform="translate(231.31 146.73)" fill="url(#cg)"/><path d="M4.028,6.786,2.39,5.149,4.028,4.33Z" transform="translate(193.3 145.92)" fill="url(#ch)"/><path d="M4.735,5.958,1.46,8.414V4.32Z" transform="translate(118.08 145.11)" fill="url(#ci)"/><path d="M5.074,8.414.98,5.958,5.074,4.32Z" transform="translate(79.26 145.11)" fill="url(#cj)"/><path d="M3.345,5.149.07,7.605V4.33Z" transform="translate(5.661 145.92)" fill="url(#ck)"/><path d="M1.6,3.93l-.82.819V3.93Z" transform="translate(63.085 113.57)" fill="url(#cl)"/><path d="M1.129,4.749.31,3.93h.819Z" transform="translate(25.072 113.57)" fill="url(#cm)"/></g></svg>