<svg xmlns="http://www.w3.org/2000/svg" width="25.81" height="25.81" viewBox="0 0 25.81 25.81">
  <g id="Icon_feather-image" data-name="Icon feather-image" transform="translate(-3.75 -3.75)">
    <path id="Path_4830" data-name="Path 4830" d="M7.167,4.5H25.833A2.667,2.667,0,0,1,28.5,7.167V25.833A2.667,2.667,0,0,1,25.833,28.5H7.167A2.667,2.667,0,0,1,4.5,25.833V7.167A2.667,2.667,0,0,1,7.167,4.5Z" transform="translate(0 0)" fill="none" stroke="#fefefe" stroke-linecap="round" stroke-linejoin="round" stroke-width="1.5"/>
    <path id="Path_4831" data-name="Path 4831" d="M14.669,12.585A2.085,2.085,0,1,1,12.585,10.5,2.085,2.085,0,0,1,14.669,12.585Z" transform="translate(-0.712 -0.712)" fill="none" stroke="#fefefe" stroke-linecap="round" stroke-linejoin="round" stroke-width="1.5"/>
    <path id="Path_4832" data-name="Path 4832" d="M28.721,21.949,22.089,15,7.5,30.287" transform="translate(-0.221 -1.787)" fill="none" stroke="#fefefe" stroke-linecap="round" stroke-linejoin="round" stroke-width="1.5"/>
  </g>
</svg>
