<svg xmlns="http://www.w3.org/2000/svg" width="276.982" height="266.248" viewBox="0 0 276.982 266.248"><g transform="translate(6.12 -0.002)"><g transform="translate(-0.007 0.002)"><path d="M258.05,68.4c-1.392-10.844-4.113-21.237-9.821-30.7C237.68,20.1,218.667,9.475,199.36,4.085,183.184-.432,165.766-1.738,149.625,2.93,131.912,8.048,117.053,19.845,101.1,29.094A251.921,251.921,0,0,1,64.649,46.218c-10.156,3.888-23.068,6.066-31.416,13.455A83.908,83.908,0,0,0,19.743,75.1C4.145,97.814-.916,126.832,1.493,153.91c1.675,18.828,6.869,37.938,18.5,52.913,16.338,20.971,44.368,31.306,70.828,28.7,30.041-2.952,58.488-20.9,88.35-16.6,14.865,2.143,29.088,9.786,44.033,8.365,14.737-1.4,27.355-11.554,36.246-23.369,7.129-9.5,11.872-20.971,12.311-32.93.474-12.941-5.379-24.732-8.319-37.089C258.31,112.285,260.869,90.2,258.05,68.4Z" transform="translate(-0.923 -0.002)" fill="#002961" opacity="0.1"/></g><g transform="translate(1.071 265.75)"><line x2="91.856" transform="translate(176.78)" fill="none" stroke="#263238" stroke-miterlimit="10" stroke-width="1"/><line x2="172.159" fill="none" stroke="#263238" stroke-miterlimit="10" stroke-width="1"/></g><g transform="translate(102.645 2.514)"><rect width="116.6" height="216.001" transform="translate(1.086 10.988)" fill="#fff"/><path d="M299.791,57.835a1.444,1.444,0,0,0,1.444-1.439V41.988a1.444,1.444,0,0,0-1.444-1.439,1.334,1.334,0,0,0-.266,0V13.64a9.29,9.29,0,0,0-9.29-9.29H187.894a9.29,9.29,0,0,0-9.284,9.29V231.028a9.284,9.284,0,0,0,9.284,9.284H290.236a9.284,9.284,0,0,0,9.29-9.284V98.772a1.334,1.334,0,0,0,.266.029,1.439,1.439,0,0,0,1.444-1.439V82.96a1.439,1.439,0,0,0-1.444-1.439,1.341,1.341,0,0,0-.266,0V78.268a1.341,1.341,0,0,0,.266,0,1.439,1.439,0,0,0,1.444-1.439V62.5a1.439,1.439,0,0,0-1.444-1.439,1.334,1.334,0,0,0-.266,0V57.806a1.334,1.334,0,0,0,.266.029Zm-5.644,168.473H183.989V20.376H294.147Z" transform="translate(-178.61 -4.35)" fill="#263238"/><rect width="9.134" height="5.009" transform="translate(102.66 18.164)" fill="none" stroke="#263238" stroke-linecap="round" stroke-linejoin="round" stroke-width="0.82"/><rect width="7.123" height="5.009" transform="translate(102.66 18.164)" fill="#263238" stroke="#263238" stroke-linecap="round" stroke-linejoin="round" stroke-width="0.73"/><rect width="1.288" height="2.207" transform="translate(111.77 19.562)" fill="#263238" stroke="#263238" stroke-linecap="round" stroke-linejoin="round" stroke-width="0.73"/><rect width="1.675" height="2.871" transform="translate(7.863 19.718)" fill="#263238" stroke="#263238" stroke-linecap="round" stroke-linejoin="round" stroke-width="0.88"/><rect width="1.675" height="3.876" transform="translate(10.491 18.707)" fill="#263238" stroke="#263238" stroke-linecap="round" stroke-linejoin="round" stroke-width="0.88"/><rect width="1.675" height="5.072" transform="translate(13.126 17.517)" fill="#263238" stroke="#263238" stroke-linecap="round" stroke-linejoin="round" stroke-width="0.88"/><path d="M326.108,162.989a1.427,1.427,0,0,0,1.733-1.41V156.42l-7.077,12.5V290.525H251.774l-7.944,14h72.994a9.278,9.278,0,0,0,9.284-9.284Z" transform="translate(-206.151 -68.567)" fill="#fff" opacity="0.15"/><path d="M265.835,229.39v-6.632h3.287v-3.316h-3.287V216.12h6.638v-3.293h3.3v3.281h3.316v-6.6h9.931V212.8h3.293v-3.287h-3.3v-3.328h-6.638V199.6h-9.908v3.3h-6.621v6.632h3.276v3.3h-3.293v3.31h-3.31v-3.316H252.6v-3.3h9.914V183h3.322v9.919h3.3v-6.58h3.333v6.621H275.8v3.328h16.552v3.3h3.322v3.328h-3.287v3.322h3.293v6.626H299v6.6h-3.287v6.644H299v3.3h6.615v3.27h-9.966v6.626h-3.3v-3.3H285.7v-3.322H282.41v-3.31H289v-3.3H272.473v3.293h-6.638Zm19.868-9.937v-3.3h-3.287v3.293h3.293v3.293h6.6v-3.287Zm-6.632,0H275.8v3.276h3.276Zm6.65-16.6H289v-3.276H285.72Z" transform="translate(-209.855 -79.791)" fill="#263238"/><path d="M223.93,183.269V160.12h23.149v23.149Zm3.316-19.839v16.523h16.528V163.43Z" transform="translate(-197.748 -70.13)" fill="#263238"/><path d="M327.349,183.285H304.2V160.13h23.149Zm-3.3-19.844H307.516v16.528h16.528Z" transform="translate(-231.645 -70.134)" fill="#263238"/><path d="M223.94,240.38h23.143v23.149H223.94Zm19.839,3.322H227.256v16.523h16.523Z" transform="translate(-197.752 -104.022)" fill="#263238"/><path d="M273.1,173.342v-6.6h-3.3V160.13h16.528v6.6h-3.276v3.316h3.281v6.609h-3.3v-3.31h-3.3v-3.3h-3.31v3.3h-3.333Zm3.322-6.649H279.7v-3.281h-3.276Z" transform="translate(-217.118 -70.134)" fill="#263238"/><path d="M240.474,211.69V215h6.609v3.3h-9.908v6.621H223.94v-6.592h3.281v3.27h6.638V211.69Z" transform="translate(-197.752 -91.907)" fill="#263238"/><path d="M273.1,263.29v3.3h3.3v3.3h3.3v3.31h-9.9V263.3H273.1Z" transform="translate(-217.122 -113.697)" fill="#263238"/><path d="M233.885,209.287h-6.621v3.3H224V206h9.879v3.293Z" transform="translate(-197.778 -89.504)" fill="#263238"/><path d="M339.456,215.9h-3.287v-6.6h-3.3V206h6.586Z" transform="translate(-243.752 -89.504)" fill="#263238"/><path d="M252.58,209.293V206h6.6v3.293Z" transform="translate(-209.847 -89.504)" fill="#263238"/><path d="M332.836,232.229v-3.3h3.293v3.287h-3.3Z" transform="translate(-243.735 -99.187)" fill="#263238"/><path d="M338.6,240.38h3.276v3.281H338.6Z" transform="translate(-246.172 -104.022)" fill="#263238"/><path d="M292.706,197.829v-3.3H296v3.287h-3.3Z" transform="translate(-226.789 -84.66)" fill="#263238"/><path d="M273.1,249.4H269.81v-3.3H273.1v3.316Z" transform="translate(-217.122 -106.438)" fill="#263238"/><path d="M332.836,255.159v-3.3h3.293v3.287h-3.3Z" transform="translate(-243.735 -108.87)" fill="#263238"/><path d="M327.1,217.426h3.293v3.3H327.1v-3.31Z" transform="translate(-241.315 -94.327)" fill="#263238"/><path d="M296.011,272.341H292.73V269.06h3.281Z" transform="translate(-226.801 -116.133)" fill="#263238"/><path d="M307.493,274.75v3.3H304.2v-3.287h3.3Z" transform="translate(-231.645 -118.536)" fill="#263238"/><path d="M341.876,278.076H338.6V274.8h3.276Z" transform="translate(-246.172 -118.557)" fill="#263238"/><path d="M296.039,226.483h-3.3V223.19h3.287v3.3Z" transform="translate(-226.806 -96.763)" fill="#263238"/><path d="M245.3,181.5h-9.9v-9.9h9.9Z" transform="translate(-202.592 -74.977)" fill="#263238"/><path d="M315.66,181.492v-9.9h9.9v9.9Z" transform="translate(-236.484 -74.973)" fill="#263238"/><path d="M235.39,261.758V251.85h9.9v9.908Z" transform="translate(-202.587 -108.866)" fill="#263238"/><path d="M229.055,146.54H214.56v15.991" transform="translate(-193.254 -64.395)" fill="none" stroke="#263238" stroke-miterlimit="10" stroke-width="2"/><path d="M330.93,146.54h14.495v15.991" transform="translate(-242.395 -64.395)" fill="none" stroke="#263238" stroke-miterlimit="10" stroke-width="2"/><path d="M229.055,280.667H214.56v-16" transform="translate(-193.254 -114.28)" fill="none" stroke="#263238" stroke-miterlimit="10" stroke-width="2"/><path d="M330.93,280.667h14.495v-16" transform="translate(-242.395 -114.28)" fill="none" stroke="#263238" stroke-miterlimit="10" stroke-width="2"/><path d="M-8.4,0V-.385h.64V0ZM-9.23,1.125a1.339,1.339,0,0,1-.137-.007l-.142-.013L-9.47.72q.07,0,.133.012A.921.921,0,0,0-9.23.74.45.45,0,0,0-8.86.565.757.757,0,0,0-8.72.08V-2.5h.43V.08a1.2,1.2,0,0,1-.12.548A.89.89,0,0,1-8.743,1,.915.915,0,0,1-9.23,1.125ZM-7.755,0V-.385a.077.077,0,0,1,.083.05.441.441,0,0,1,.017.14.47.47,0,0,1-.017.14A.077.077,0,0,1-7.755,0Zm0,0V-.385h.745l-.2.17V-2.5h.425V0Zm0,0a.077.077,0,0,1-.082-.055A.47.47,0,0,1-7.855-.2a.441.441,0,0,1,.017-.14.077.077,0,0,1,.082-.05Zm.505-2.96a.969.969,0,0,1-.125-.2.478.478,0,0,1-.045-.2.486.486,0,0,1,.075-.268.534.534,0,0,1,.2-.185.559.559,0,0,1,.27-.067.616.616,0,0,1,.162.022A.485.485,0,0,1-6.57-3.8l-.135.24a.234.234,0,0,0-.078-.033A.394.394,0,0,0-6.86-3.6a.252.252,0,0,0-.182.065.225.225,0,0,0-.068.17.286.286,0,0,0,.028.12A.662.662,0,0,0-7-3.11Zm-.265,0v-.28H-6.5v.28ZM-5.915,0V-3.58h.425V0Zm1.8,0V-.385h.64V0ZM-4.95,1.125a1.339,1.339,0,0,1-.138-.007l-.142-.013L-5.19.72q.07,0,.133.012A.921.921,0,0,0-4.95.74.45.45,0,0,0-4.58.565.757.757,0,0,0-4.44.08V-2.5h.43V.08a1.2,1.2,0,0,1-.12.548A.89.89,0,0,1-4.463,1,.915.915,0,0,1-4.95,1.125ZM-3.475,0V-.385a.077.077,0,0,1,.082.05.441.441,0,0,1,.017.14.47.47,0,0,1-.017.14A.077.077,0,0,1-3.475,0ZM-4.44-2.95v-.465h.43v.465ZM-2.875,0V-3.58h.43V0Zm-.6,0V-.385h.6V0Zm0,0a.077.077,0,0,1-.082-.055A.47.47,0,0,1-3.575-.2a.441.441,0,0,1,.017-.14.077.077,0,0,1,.082-.05ZM-1.6,0V-3.58h.425V0ZM3.19,0V-.385h.54V0ZM.73,1.66Q.68,1.375.642,1.12A3.062,3.062,0,0,1,.6.685,1.3,1.3,0,0,1,.722.11a.836.836,0,0,1,.34-.368A1.043,1.043,0,0,1,1.59-.385H3.055l-.3.26v-1.1a1.513,1.513,0,0,0-.075-.533.479.479,0,0,0-.263-.275,1.284,1.284,0,0,0-.508-.082,2.862,2.862,0,0,0-.415.03,1.3,1.3,0,0,0-.32.08l.26-.26q-.03.12-.06.3t-.048.387q-.017.208-.017.413t.017.415q.017.2.043.352t.04.208L1-.075A2.063,2.063,0,0,1,.957-.3Q.93-.46.907-.685T.885-1.16q0-.245.022-.477T.962-2.06q.033-.19.063-.3a2.126,2.126,0,0,1,.358-.09A2.925,2.925,0,0,1,1.915-2.5a2.214,2.214,0,0,1,.467.045,1.092,1.092,0,0,1,.36.142.863.863,0,0,1,.253.245,1.04,1.04,0,0,1,.148.358,2.213,2.213,0,0,1,.048.485V0H1.59a.764.764,0,0,0-.175.023.479.479,0,0,0-.182.09.473.473,0,0,0-.143.2,1.01,1.01,0,0,0-.055.368,3.063,3.063,0,0,0,.035.433q.035.242.08.543ZM3.73,0V-.385a.077.077,0,0,1,.082.05A.441.441,0,0,1,3.83-.2a.47.47,0,0,1-.018.14A.077.077,0,0,1,3.73,0ZM6.4,0A.928.928,0,0,1,6.06-.068a1.022,1.022,0,0,1-.32-.208l.275-.29a1.02,1.02,0,0,0,.205.138A.429.429,0,0,0,6.4-.385H7.3l-.18.18V-1.39q0-.085-.017-.25t-.05-.373Q7.02-2.22,6.975-2.43l.42-.07q.035.175.07.39t.06.41a2.573,2.573,0,0,1,.025.31V0ZM3.73,0V-.385h.73L4.355-.28V-2h.42V0ZM4.775,0V-.385H5.32a.529.529,0,0,0,.257-.05.292.292,0,0,0,.123-.2,2.073,2.073,0,0,0,.035-.44V-2.25H6.16v1.175a1.924,1.924,0,0,1-.085.633A.6.6,0,0,1,5.8-.1,1,1,0,0,1,5.32,0ZM3.73,0a.077.077,0,0,1-.082-.055A.47.47,0,0,1,3.63-.2a.441.441,0,0,1,.017-.14.077.077,0,0,1,.082-.05ZM8.4,0V-3.58H8.82V0Z" transform="translate(57.792 54.757)" fill="#232d5b"/><path d="M-6.517.735-6.962.01a1.117,1.117,0,0,1-.175.03q-.1.01-.21.01a1.549,1.549,0,0,1-.843-.2,1.036,1.036,0,0,1-.425-.588,3.307,3.307,0,0,1-.122-.973,3.359,3.359,0,0,1,.122-.977,1.1,1.1,0,0,1,.428-.608,1.463,1.463,0,0,1,.84-.21,1.475,1.475,0,0,1,.843.208,1.109,1.109,0,0,1,.427.608,3.321,3.321,0,0,1,.125.98,3.291,3.291,0,0,1-.122.98,1.017,1.017,0,0,1-.437.58l.42.68Zm-.83-1.1A.934.934,0,0,0-6.78-.51a.742.742,0,0,0,.263-.442,3.365,3.365,0,0,0,.07-.753,3.334,3.334,0,0,0-.073-.752.834.834,0,0,0-.265-.468.861.861,0,0,0-.562-.16.862.862,0,0,0-.56.16.826.826,0,0,0-.267.465,3.327,3.327,0,0,0-.073.755,3.345,3.345,0,0,0,.07.745.75.75,0,0,0,.265.447A.924.924,0,0,0-7.347-.365ZM-5.3,0V-3.445H-4a1.607,1.607,0,0,1,.635.11.767.767,0,0,1,.382.345,1.287,1.287,0,0,1,.127.615A1.269,1.269,0,0,1-3-1.74a.8.8,0,0,1-.457.365L-2.832,0h-.525l-.565-1.27h-.9V0Zm.48-1.675H-4a.71.71,0,0,0,.382-.09.493.493,0,0,0,.2-.248,1,1,0,0,0,.06-.357.7.7,0,0,0-.158-.5A.653.653,0,0,0-4-3.035h-.82ZM.118,1.24a1.764,1.764,0,0,1-.733-.148A1.228,1.228,0,0,1-1.13.678,1.033,1.033,0,0,1-1.317.07q0-.105.017-.275t.045-.38q.027-.21.06-.425l.063-.415.465.07q-.055.345-.1.633t-.065.49a3.012,3.012,0,0,0-.022.3.659.659,0,0,0,.12.39.8.8,0,0,0,.34.267,1.249,1.249,0,0,0,.51.1A1.181,1.181,0,0,0,.61.733.707.707,0,0,0,.918.48a.677.677,0,0,0,.1-.38V-2.505h.47V.1a1.011,1.011,0,0,1-.185.61A1.2,1.2,0,0,1,.813,1.1,1.7,1.7,0,0,1,.118,1.24ZM1.488,0l.005-.415h2.56l-.415.37V-1.19a1.279,1.279,0,0,0-.085-.5.614.614,0,0,0-.247-.295.781.781,0,0,0-.408-.1,1.087,1.087,0,0,0-.407.075,1.512,1.512,0,0,0-.35.2,2.42,2.42,0,0,0-.3.267q-.138.145-.252.29L1.383-1l-.135-.39q.145-.175.28-.343A3.858,3.858,0,0,1,1.8-2.035a1.787,1.787,0,0,1,.3-.245,1.464,1.464,0,0,1,.363-.165,1.539,1.539,0,0,1,.447-.06,1.232,1.232,0,0,1,.578.12,1,1,0,0,1,.362.315,1.25,1.25,0,0,1,.19.428A1.963,1.963,0,0,1,4.1-1.19V0Zm.9-2.95v-.485h.47v.485ZM5.418,0V-.415h.64V0Zm-.86,1.145a1.339,1.339,0,0,1-.137-.008l-.148-.013L4.313.71,4.45.72q.062,0,.1,0a.443.443,0,0,0,.363-.17A.736.736,0,0,0,5.052.08V-2.505h.47V.08A1.185,1.185,0,0,1,5.4.635a.951.951,0,0,1-.34.375A.92.92,0,0,1,4.557,1.145ZM6.057,0V-.415A.077.077,0,0,1,6.14-.36a.513.513,0,0,1,.017.15.539.539,0,0,1-.017.153A.077.077,0,0,1,6.057,0ZM7.1-.035A1.619,1.619,0,0,1,6.7-.555a1.4,1.4,0,0,1-.14-.615,1.344,1.344,0,0,1,.105-.535,1.363,1.363,0,0,1,.282-.425,1.218,1.218,0,0,1,.423-.278,1.393,1.393,0,0,1,.52-.1,1.779,1.779,0,0,1,.313.03,2.036,2.036,0,0,1,.323.085L8.368-2a1.437,1.437,0,0,0-.24-.067,1.248,1.248,0,0,0-.23-.023.868.868,0,0,0-.453.117.818.818,0,0,0-.307.323.979.979,0,0,0-.11.47,1.047,1.047,0,0,0,.39.835ZM6.057,0V-.415h2.52V0Zm0,0a.077.077,0,0,1-.082-.058A.539.539,0,0,1,5.957-.21a.513.513,0,0,1,.017-.15.077.077,0,0,1,.082-.055Z" transform="translate(58.02 40.429)" fill="#232d5b"/><g transform="translate(7.863 35.429)"><path d="M139.014,393.161a.912.912,0,1,0-.912.91A.912.912,0,0,0,139.014,393.161Zm0,0" transform="translate(-134.989 -387.081)" fill="#232d5b"/><path d="M162.234,33.435a.54.54,0,1,1,.424-.635A.54.54,0,0,1,162.234,33.435Zm0,0" transform="translate(-159.014 -32.365)" fill="#232d5b"/><path d="M5.965,95.324H1.259a.762.762,0,0,1-.72-.463.652.652,0,0,1,.244-.768l.151-.11a1.3,1.3,0,0,0,.553-1.045v-.724a2.047,2.047,0,0,1,2.14-1.938,2.047,2.047,0,0,1,2.14,1.938v.738A1.3,1.3,0,0,0,6.3,93.982l.148.111a.672.672,0,0,1,.277.535v.007a.728.728,0,0,1-.762.69Zm0,0" transform="translate(-0.497 -89.396)" fill="#232d5b"/><path d="M210.685,1.255a1.271,1.271,0,1,0-1.271,1.269A1.271,1.271,0,0,0,210.685,1.255Zm0,0" transform="translate(-204.361 0.558)" fill="#d6131b"/></g><g transform="translate(106.343 36.778)"><line x1="6" transform="translate(0.072 -0.349)" fill="none" stroke="#232d5b" stroke-linecap="round" stroke-width="1"/><line x1="5" transform="translate(1.072 1.651)" fill="none" stroke="#232d5b" stroke-linecap="round" stroke-width="1"/><line x1="3" transform="translate(3.072 3.651)" fill="none" stroke="#232d5b" stroke-linecap="round" stroke-width="1"/></g></g><g transform="translate(-6.12 72.374)"><g transform="translate(2 1.13)"><rect width="7.897" height="16" rx="1" transform="translate(90.547 21.746)" fill="#263238" stroke="#263238" stroke-miterlimit="10" stroke-width="1"/><rect width="7" height="15" rx="0.4" transform="translate(91.047 22.213)" fill="#fff"/><path d="M4.446,2.3h-1.5V3.8h1.5Zm.375-.375v2.25H2.571V1.928Zm-1.5.75h.75v.75h-.75ZM8.2,2.3H6.7V3.8H8.2Zm.375-.375v2.25H6.321V1.928Zm-1.5.75h.75v.75h-.75ZM4.446,6.053h-1.5v1.5h1.5Zm.375-.375v2.25H2.571V5.678Zm-1.5.75h.75v.75h-.75ZM5.2,1.928h.375V2.3H5.2Zm.375.375h.375v.375H5.571ZM5.2,2.678h.375v.375H5.2Zm.375.375h.375v.375H5.571ZM5.2,3.428h.375V3.8H5.2Zm.375.375h.375v.375H5.571ZM5.2,4.178h.375v.375H5.2Zm0,.75h.375V5.3H5.2Zm.375.375h.375v.375H5.571ZM5.2,5.678h.375v.375H5.2Zm.375.375h.375v.375H5.571ZM5.2,6.428h.375V6.8H5.2Zm.375.375h.375v.375H5.571ZM5.2,7.178h.375v.375H5.2Zm.375.375h.375v.375H5.571ZM8.2,4.928h.375V5.3H8.2Zm-5.25,0h.375V5.3H2.946Zm.375-.375H3.7v.375H3.321Zm-.75,0h.375v.375H2.571Zm1.5,0h.375v.375H4.071Zm.375.375h.375V5.3H4.446Zm.375-.375H5.2v.375H4.821Zm1.125.375h.375V5.3H5.946Zm.375-.375H6.7v.375H6.321Zm.375.375h.375V5.3H6.7Zm.375-.375h.375v.375H7.071Zm.375.375h.375V5.3H7.446Zm.375-.375H8.2v.375H7.821ZM8.2,5.678h.375v.375H8.2Zm-2.25,0h.375v.375H5.946ZM6.321,5.3H6.7v.375H6.321Zm.375.375h.375v.375H6.7Zm.75,0h.375v.375H7.446ZM7.821,5.3H8.2v.375H7.821ZM8.2,6.428h.375V6.8H8.2Zm-2.25,0h.375V6.8H5.946Zm.375-.375H6.7v.375H6.321Zm.75,0h.375v.375H7.071Zm.375.375h.375V6.8H7.446Zm.375-.375H8.2v.375H7.821ZM8.2,7.178h.375v.375H8.2ZM6.321,6.8H6.7v.375H6.321Zm.375.375h.375v.375H6.7ZM7.071,6.8h.375v.375H7.071Zm.375.375h.375v.375H7.446Zm-1.125.375H6.7v.375H6.321Zm.75,0h.375v.375H7.071Zm.75,0H8.2v.375H7.821Z" transform="translate(88.946 24.818)" fill="#00245d"/></g><path d="M1962.182,501.205s1.926-6.211,3.019-6.88c.443-.271,1.806-.837,3.151-1.459v3.695c-.615.98-1.216,1.956-.792,1.531s2.734-1.848,2.976-1.531-1.153,1.531-1.822,2.5-1.391,2.607-3.765,2.976S1962.182,501.205,1962.182,501.205Z" transform="translate(-1876.29 -461.364)" fill="#ffb27d"/><path d="M2376.809,840.784s.577,5.611,1.217,6.673,3.331,4.452,4.48,5.117-.7-4.469-.468-5.467.945,1.822,1.451,1.89.375-2.475.4-3.4-2.463-3.207-3.339-5.177S2376.809,840.784,2376.809,840.784Z" transform="translate(-2361.106 -748.638)" fill="#ffb27d"/><path d="M1990.88,511.064s4.666,22.9,30.342,30.384c8.015,2.335,26.224-24.053,26.224-24.053s-.64-2.434-4.65-1.874c0,0-17.731,11.737-19.963,13.013-1.98,1.132-15.005-14.544-20.943-17.072A15.164,15.164,0,0,0,1990.88,511.064Z" transform="translate(-1957.58 -476.492)" fill="#be292f"/><path d="M2428.9,1336.678s-3.184,2.906-2.564,4.971,3.5,3.442,3.885,5.968,1.941,3.9,3.341,3.9h6.667s1.029-1.777-1.457-2.312-3.423-3.5-3.268-6.258a48.77,48.77,0,0,0-.233-6.432l-5.282-1.217Z" transform="translate(-2426.255 -1158.142)" fill="#0a1630"/><path d="M2160.2,1374.3s-.572,6.616.825,7.3l17.9-.037s0-2.067-2.875-2.526-7.924-2.142-8.779-5.889S2160.2,1374.3,2160.2,1374.3Z" transform="translate(-2118.473 -1188.245)" fill="#0a1630"/><path d="M2207.284,841.246s-.944,11.6-2.053,25.536c-1.509,18.935-3.322,42.2-3.5,46.6-.31,7.649-1.554,19.892-1.554,19.892s-2.955,2.908-8.856,1.683A197.494,197.494,0,0,1,2184.552,899c-.022-.3-.045-.608-.07-.913-1.391-18.819-3.572-58.446-3.572-58.446Z" transform="translate(-2150.451 -748.644)" fill="#00245d"/><path d="M2207.291,841.246s-.944,11.6-2.053,25.536L2184.552,899c-.022-.3-.045-.609-.07-.913-1.391-18.819-3.572-58.446-3.572-58.446Z" transform="translate(-2150.458 -748.644)" fill="#02183b"/><path d="M2255.588,820.8s-17.014,42-28.2,61.734-14.684,25.245-14.684,25.245-6.411-2.526-6.993-4.247c0,0,4.278-38.1,11.77-47.39,4.235-5.25,9.213-21,9.439-26.508s1.516-16.41,1.516-16.41Z" transform="translate(-2203.066 -726.825)" fill="#00245d"/><path d="M2230.08,418.145s11.513,5.563,18.15,3.494a15.666,15.666,0,0,0-4.493-3.593c.231-1.333.408-2.489.511-3.477a31.917,31.917,0,0,0,.281-3.543l-4.441-3.494-4.212-3.343C2236.206,413.6,2230.08,418.145,2230.08,418.145Z" transform="translate(-2199.945 -388.889)" fill="#ffb27d"/><path d="M2175.381,531.377c-.024.7,1.481,1.507,2.145,1.808a46.915,46.915,0,0,0,14.729,4.172c6.15.628,13.427-.754,15.928-.7a1.045,1.045,0,0,0,.7-.276c.174-.125.306-7.541.174-16.862,0-.375,0-.753-.026-1.13v-.125c-.051-3.65-.174-7.466-.356-11.287-.358-8.394-1.022-16.488-2.145-20.961a22.73,22.73,0,0,0-7.2-11.311l-2.3-2.02a11.047,11.047,0,0,1-7.148-.853c-2.655-1.281-5.514-2.665-5.973-2.312-3.477,2.538-5.82,8.243-7.072,15.532a.594.594,0,0,1-.019.108,81.24,81.24,0,0,0-1.028,13.715c0,1.811.052,3.67.153,5.505a161.23,161.23,0,0,1-.174,20.839c-.066,1.013-.134,1.937-.191,2.762C2175.484,529.441,2175.407,530.576,2175.381,531.377Z" transform="translate(-2151.312 -442.82)" fill="#e31b23"/><path d="M2251.37,423.677s2.91,5.3,8.448,6.779a31.916,31.916,0,0,0,.281-3.543l-4.442-3.494Z" transform="translate(-2215.515 -404.776)" fill="#ed985f"/><path d="M2240.541,357.65s-10.982,1.8-12.013-4.954-3.143-11.066,3.824-12.5,8.727.94,9.627,3.112S2243.371,357.012,2240.541,357.65Z" transform="translate(-2193.931 -335.66)" fill="#ffb27d"/><path d="M2207.817,319.895c-.1-.115-.33-.207-.842-.235a2.087,2.087,0,0,1,.956-.269,2.572,2.572,0,0,1,1.71-2.277,1.539,1.539,0,0,0-.746,1.107c1.419-1.457,4.459-2.517,12.876-1.853,11.092.869,7.436,7.977,6,8.824s-5.052-1.474-7.727-1.262-3.185,4.078-4.092,4.61-.551-.408-1.778-.963-1.345,1.479-.991,2.8-1.333,3.068-1.333,3.068l-1.7-1.836c-1.705-1.836-3.313-9.615-2.538-11.273C2207.678,320.192,2207.746,320.044,2207.817,319.895Z" transform="translate(-2177.212 -316.165)" fill="#16214b"/><path d="M2311.616,469.45s-6.953,3.291-10.28,8.344c-5.168,7.847-11.158,36.444-11.27,39.091s4.372,21.343,4.372,21.343,4.547-.3,5.721-2.594c0,0-.909-19.21-.334-20.444s18.948-25.767,16.888-31S2311.616,469.45,2311.616,469.45Z" transform="translate(-2279.016 -442.804)" fill="#dd1820"/></g></g></svg>