<svg xmlns="http://www.w3.org/2000/svg" width="278.935" height="275.248" viewBox="0 0 278.935 275.248"><g transform="translate(19.159 6.746)"><g transform="translate(-11.093 -6.746)"><path d="M258.05,68.4c-1.392-10.844-4.113-21.237-9.821-30.7C237.68,20.1,218.667,9.475,199.36,4.085,183.184-.432,165.766-1.738,149.625,2.93,131.912,8.048,117.053,19.845,101.1,29.094A251.921,251.921,0,0,1,64.649,46.218c-10.156,3.888-23.068,6.066-31.416,13.455A83.908,83.908,0,0,0,19.743,75.1C4.145,97.814-.916,126.832,1.493,153.91c1.675,18.828,6.869,37.938,18.5,52.913,16.338,20.971,44.368,31.306,70.828,28.7,30.041-2.952,58.488-20.9,88.35-16.6,14.865,2.143,29.088,9.786,44.033,8.365,14.737-1.4,27.355-11.554,36.246-23.369,7.129-9.5,11.872-20.971,12.311-32.93.474-12.941-5.379-24.732-8.319-37.089C258.31,112.285,260.869,90.2,258.05,68.4Z" transform="translate(-0.923 -0.002)" fill="#002961" opacity="0.1"/></g><g transform="translate(-19.159 268.001)"><line x2="91.856" transform="translate(176.78)" fill="none" stroke="#263238" stroke-miterlimit="10" stroke-width="1"/><line x2="172.159" fill="none" stroke="#263238" stroke-miterlimit="10" stroke-width="1"/></g><g transform="translate(39.136 36.355)"><path d="M117.33,83.967c-1.827-2.862-.481-7.794-1.468-11.028s-.852-5.249-2.965-7.861a16.441,16.441,0,0,0-8.1-5.024,15.49,15.49,0,0,0-12.507,2.795,16.074,16.074,0,0,0-4.774,4.774c-1.382,2.387-1.6,5.1-1.528,7.916l-.177-.177a8.038,8.038,0,0,0-4.64-1.51,4.116,4.116,0,0,0-2.235.542,2.113,2.113,0,0,0-1.029,1.93c.158,1.218,1.5,1.827,2.655,2.241a2.941,2.941,0,0,0,2.107,5.48c1.638-.463,2.509-2.15,3.538-3.581a18.749,18.749,0,0,1-.786,6.936c-.926,2.606-2.832,5.018-2.618,7.776.1,1.218.609,2.472.4,3.7-.378,1.894-2.436,2.953-3.38,4.628-1.285,2.216-.4,5.194,1.425,7s4.36,2.667,6.838,3.319c5.876,1.528,12.562,2.022,17.616-1.346l14.164-14.444A19.95,19.95,0,0,0,117.33,83.967Z" transform="translate(-69.602 -59.703)" fill="#00245d"/><path d="M129.12,394.43c-.091.694-1.827,20.131-1.827,20.131h-8.884l-1.559-20.052Z" transform="translate(-84.833 -190.606)" fill="#ffb27d"/><path d="M116.258,400.52c-.085.7-1.827,20.131-1.827,20.131h-8.878L104,400.605Z" transform="translate(-79.807 -192.987)" fill="#ffb27d"/><path d="M90.872,223.19l39.136,8.89-.737,4.957-12.758,102.5-7.835.531-.315,4.3-10.8-.264s-2.122-34.246-2.6-42.107-.731-21.379-2.21-29.74S81.4,239.077,90.872,223.19Z" transform="translate(-73.085 -123.638)" fill="#00245d"/><path d="M129.241,248.82a1.344,1.344,0,0,1,0,.231v.664c0,.609-.049,1.455-.085,2.551-.091,2.235-.219,5.444-.384,9.4-.353,7.916-.84,18.877-1.376,30.988s-1.1,23.042-1.474,30.988c-.2,3.952-.365,7.155-.481,9.39-.061,1.1-.11,1.955-.146,2.551l-.049.664a1.218,1.218,0,0,1,0,.225,1.218,1.218,0,0,1,0-.225v-.664c0-.609.055-1.461.091-2.557.091-2.235.219-5.438.384-9.39.353-7.947.84-18.877,1.376-30.994s1.041-23.005,1.443-30.982c.2-3.952.365-7.155.481-9.39.061-1.1.11-1.949.146-2.551,0-.28.037-.5.043-.664a1,1,0,0,1,.03-.231Z" transform="translate(-88.114 -133.662)" fill="#455a64"/><path d="M224.188,130.27s3.276-4.689,3.995-5.085,6.753-1.6,7.216-1.364,7.191,2.5,6.272,3.191-5.608-.95-5.608-.95l-.7.225a30.223,30.223,0,0,1,4.871,1.961c.8.645.3,1.535-.451,1.34s-4.263-1.467-4.5-1.352,3.788,1.589,4.189,1.924c.548.451.438,1.528-.311,1.358-.445-.1-4.2-1.723-4.2-1.723a33.693,33.693,0,0,1,3.16,2c.4.518-.073,1.139-.725.883-.445-.17-2.478-1.565-3.045-1.8,0,0-.609.067-1.309,1.157s-4.141,3.343-4.141,3.343l-2.344,1.327-3.9-5.4Z" transform="translate(-126.212 -84.767)" fill="#ffbe9d"/><path d="M227.75,132.873a1.394,1.394,0,0,0,1.608.25c.536-.219.986-.609,1.51-.871,1.559-.773,3.55-.219,5.072-1.066.213-.116.438-.329.365-.56s-.329-.28-.554-.311l-5.718-.755" transform="translate(-128.202 -87.022)" fill="#ffbe9d"/><path d="M230.032,129.5a2.745,2.745,0,0,1,.609,0c.4.037.98.091,1.693.171l2.509.3.719.085a1.132,1.132,0,0,1,.81.311.475.475,0,0,1,0,.542.974.974,0,0,1-.347.323,3.368,3.368,0,0,1-.779.329,21.963,21.963,0,0,1-3.087.384,4.525,4.525,0,0,0-1.218.347,9.35,9.35,0,0,0-1,.609,2.04,2.04,0,0,1-1.693.311c-.408-.146-.512-.4-.493-.4a1.505,1.505,0,0,0,.53.274,1.967,1.967,0,0,0,1.535-.39,11.256,11.256,0,0,1,1-.609,4.33,4.33,0,0,1,1.327-.4,25.166,25.166,0,0,0,3.045-.4,3.361,3.361,0,0,0,.712-.292c.207-.116.329-.3.237-.4a1.218,1.218,0,0,0-.609-.183l-.725-.1-2.5-.365c-.712-.11-1.285-.2-1.681-.274a2.265,2.265,0,0,1-.6-.17Z" transform="translate(-128.201 -86.992)" fill="#eb996e"/><path d="M248.238,128.336a3.319,3.319,0,0,1-1.315.146,7.705,7.705,0,0,1-1.431-.158c-.524-.146-1.084-.317-1.681-.493l-1.26-.4h.079a18.733,18.733,0,0,1-3.13.469,18.324,18.324,0,0,1,3.045-.773h.079l1.254.378,1.656.511a8.927,8.927,0,0,0,1.376.225A10.926,10.926,0,0,1,248.238,128.336Z" transform="translate(-132.798 -86.072)" fill="#eb996e"/><path d="M143.06,120.576s7.356-.4,11.052,1.413,19.967,13.019,19.967,13.019l16.685-6.181,5.907,8.007-14.456,10.528a12.282,12.282,0,0,1-11.728,1.114l-18.725-7.435Z" transform="translate(-95.083 -83.494)" fill="#e31b23"/><path d="M194.755,152.11a3.654,3.654,0,0,1-.56-1.066,10.736,10.736,0,0,1-.609-5.718,3.787,3.787,0,0,1,.317-1.157,20.746,20.746,0,0,0-.11,4.031A20.96,20.96,0,0,0,194.755,152.11Z" transform="translate(-114.785 -92.736)" fill="#263238"/><g transform="translate(78.022 51.623)" opacity="0.3"><path d="M193.332,144.48a3.493,3.493,0,0,0-.889,2.509,24.245,24.245,0,0,0,.1,4.1,5.328,5.328,0,0,0,.609,2.15,1.035,1.035,0,0,0,.609.536c.475.11.9-.408.913-.9a2.99,2.99,0,0,0-.463-1.37,10.151,10.151,0,0,1-.846-6.619" transform="translate(-192.4 -144.48)"/></g><path d="M94.173,123.493c-.359.116-4.311,2.691-7.423,4.737a5.359,5.359,0,0,0-1.949,6.656l7.721,17.354,2.7,10.522-8.762,23.024.609,2.557,41.979,3.593,2.046-4.829-2.436-21.921V137.693l-6.729-17.153-11.533.146Z" transform="translate(-72.118 -83.495)" fill="#e31b23"/><g transform="translate(53.762 38.312)" opacity="0.3"><path d="M153.7,122.62a1.315,1.315,0,0,1,1.218.773,3.994,3.994,0,0,1,.311,1.516c.493,7.453.207,16.557.091,24.217l.524,23.608c-2.241-4.177-2.466-9.1-2.643-13.835q-.237-6.382-.469-12.787c-.262-7.057.085-14.121-.177-21.185C152.548,124,152.761,122.73,153.7,122.62Z" transform="translate(-152.559 -122.62)"/></g><g transform="translate(18.135 65.981)" opacity="0.3"><path d="M94.1,194.067c.225-.743.81-2.125.81-2.125A26,26,0,0,0,98.386,178.7s-1-4.177-2.064-8.1L95.2,168.06l.073.03c1.894.871,3.045,3.465,3.313,5.535s.518,4.427,2.089,5.846c1.029.938,2.472,1.285,3.593,2.113a5.188,5.188,0,0,1,2.076,4.226c0,.688-.14,1.486.353,1.967s1.528.268,2.29,0,1.79-.438,2.21.25a1.37,1.37,0,0,1-.445,1.65,11.051,11.051,0,0,1-1.608.932c-1.321.8-2.076,2.253-3.191,3.325-2.21,2.131-5.529,2.5-8.586,2.758a3.2,3.2,0,0,1-2.57-.53,2.186,2.186,0,0,1-.694-2.095Z" transform="translate(-94.052 -168.06)"/></g><path d="M88.39,237.107c0-.049.743.171,1.949.365a17.16,17.16,0,0,0,9.311-1.114c1.12-.469,1.778-.853,1.827-.81s-.14.134-.432.317a10.458,10.458,0,0,1-1.285.7,15.29,15.29,0,0,1-9.438,1.127,10.4,10.4,0,0,1-1.407-.378A1.54,1.54,0,0,1,88.39,237.107Z" transform="translate(-73.703 -128.47)" fill="#455a64"/><path d="M120.833,195.745l-.219-.335s1.279,1.754.761,3.16a1.778,1.778,0,0,1-.341.566,2.277,2.277,0,0,1-3.373,2,.95.95,0,0,1-.609-.907,1.218,1.218,0,0,1,.311-.518,2.047,2.047,0,0,0,.189-.262l-1.565-.311s-3.794-.225-4.817-2.253c-.164-.329-8.3.317-8.3.317l.609-9.177,13.616,1.827s9.639,1.108,10.577,1.108a.932.932,0,0,1,1.035,1.12c-.037.609-.505.865-1.437.9l-6.089.195h0c.487.719,1.108,1.882.347,2.3Z" transform="translate(-79.365 -109.888)" fill="#ffb27d"/><path d="M127.81,202.456c0-.043.268-.055.694,0a3.593,3.593,0,0,1,1.589.542,1.87,1.87,0,0,1,.877,1.449c0,.457-.177.694-.207.67a6.393,6.393,0,0,0,0-.652,1.827,1.827,0,0,0-.828-1.218,4.482,4.482,0,0,0-1.455-.578C128.06,202.566,127.8,202.5,127.81,202.456Z" transform="translate(-89.119 -115.516)" fill="#eb996e"/><path d="M128,197.754c0-.043.311-.043.786.11a3.885,3.885,0,0,1,1.614,1.053,3.782,3.782,0,0,1,.907,1.705c.116.487.085.792.043.8a6.424,6.424,0,0,0-1.181-2.283A6.528,6.528,0,0,0,128,197.754Z" transform="translate(-89.193 -113.682)" fill="#eb996e"/><path d="M129.83,195.33c0-.085.554-.116,1.169.122s1,.609.95.7-.493-.183-1.066-.4S129.824,195.421,129.83,195.33Z" transform="translate(-89.909 -112.719)" fill="#eb996e"/><path d="M128.7,207.121c-.079.043-.311-.244-.712-.365s-.761-.049-.8-.134.365-.347.9-.171S128.79,207.1,128.7,207.121Z" transform="translate(-88.875 -117.069)" fill="#eb996e"/><path d="M83.75,154.177l-3.9,10.3,14.523,2.2-.719,12.3-19.961-.84a9.749,9.749,0,0,1-9.426-9.134v-.658c.079-3.654,6.467-20.247,9.4-28.808a11.868,11.868,0,0,1,5.054-6.175h0Z" transform="translate(-64.27 -88.512)" fill="#e31b23"/><path d="M101.263,198.672a6.131,6.131,0,0,1,0-.938c0-.652.061-1.522.1-2.582.122-2.247.28-5.31.463-8.787l.134.158-3.045-.432c-4.208-.609-8.007-1.181-10.76-1.608l-3.252-.524-.883-.158a1.109,1.109,0,0,1-.3-.079,1.1,1.1,0,0,1,.311,0l.9.1,3.264.42c2.758.371,6.57.907,10.772,1.516l3.045.445h.14v.146c-.225,3.477-.426,6.534-.566,8.775-.085,1.066-.152,1.93-.2,2.582a5.358,5.358,0,0,1-.116.962Z" transform="translate(-71.876 -108.2)" fill="#263238"/><path d="M156.707,143.365a8.709,8.709,0,0,1,0-1.577c.037-.968.079-2.3.079-3.775s-.03-2.813-.061-3.781a8.874,8.874,0,0,1,0-1.571,6.7,6.7,0,0,1,.225,1.559c.085.968.158,2.308.158,3.794s-.085,2.825-.177,3.794a6.977,6.977,0,0,1-.225,1.559Z" transform="translate(-100.406 -88.235)" fill="#263238"/><path d="M213.692,149.733a.609.609,0,1,0,.226-.675A.609.609,0,0,0,213.692,149.733Z" transform="translate(-122.694 -94.603)" fill="#263238"/><path d="M182.14,146.1a.609.609,0,1,0,.609-.609A.609.609,0,0,0,182.14,146.1Z" transform="translate(-110.366 -93.252)" fill="#263238"/><path d="M165.75,132.269a.609.609,0,1,0,.609-.609A.609.609,0,0,0,165.75,132.269Z" transform="translate(-103.956 -87.844)" fill="#263238"/><path d="M201.16,147.059a.609.609,0,1,0,.609-.609A.609.609,0,0,0,201.16,147.059Z" transform="translate(-117.804 -93.628)" fill="#263238"/><path d="M187.09,162.449a.609.609,0,1,0,.609-.609A.609.609,0,0,0,187.09,162.449Z" transform="translate(-112.301 -99.646)" fill="#263238"/><path d="M169.322,146.943a.609.609,0,1,0,.226-.675A.609.609,0,0,0,169.322,146.943Z" transform="translate(-105.342 -93.512)" fill="#263238"/><g transform="translate(17.297 39.377)" opacity="0.3"><path d="M104,128.566c-.359-1.12-.853-1.346-1.918-1.827a19.865,19.865,0,0,1-3.708-2.369l-5.261,3.355a9.671,9.671,0,0,0,.414,6.9,5.327,5.327,0,0,0,9.347.834,10.224,10.224,0,0,0,1.687-4.049A7.7,7.7,0,0,0,104,128.566Z" transform="translate(-92.676 -124.37)"/></g><path d="M122.357,74.313c-.664-3.976-3.818-8.61-7.764-7.776l-12.118,4.421a2.369,2.369,0,0,0-1.827,2.6l4.427,29.868h-.085s3.684,8.178,11.655,4.762c1.577-.676,2.143-2.533,2.277-4.4h.085l-.055-.609a19.6,19.6,0,0,0-.365-4.129h0c-.219-2.436-.323-3.416-.317-3.392s5.024-1.376,5.4-8.154A74.906,74.906,0,0,0,122.357,74.313Z" transform="translate(-78.49 -62.337)" fill="#ffb27d"/><path d="M123.657,113.486A17.05,17.05,0,0,1,114.48,112s2.637,4.36,9.25,3.045Z" transform="translate(-83.906 -80.155)" fill="#eb996e"/><path d="M117.969,63.82a8.062,8.062,0,0,1,6.869,7.526l-3.788.183-.786-1.973a2.821,2.821,0,0,1-1.589,3.246,7.883,7.883,0,0,1-3.879.56l-.244-1.693a3.221,3.221,0,0,1-1.961,2.618,9.59,9.59,0,0,1-3.349.694,9.444,9.444,0,0,0-3.343.719,7.131,7.131,0,0,1,.566-6.558,10.352,10.352,0,0,1,5.316-4.116,18.98,18.98,0,0,1,6.753-.98" transform="translate(-80.337 -61.313)" fill="#00245d"/><path d="M94.994,107.374c.371-1.949,1.029-3.909.731-5.87-.28-1.8-1.346-3.654-.664-5.328a3.081,3.081,0,0,1,2.582-1.784c-2.558-4.177-2.947-9.463-2.765-14.425a17.957,17.957,0,0,1,.645-4.762,7.1,7.1,0,0,1,2.746-3.861,4.439,4.439,0,0,1,4.585-.225l1.053.085a10.474,10.474,0,0,1-.347,7.776,7.9,7.9,0,0,0-1.017,2.752c-.116,2.089,2,3.775,2,5.87a10.5,10.5,0,0,1-1.5,4.677,1.925,1.925,0,0,0,.164,2.558c.493.645,4.08,9.511,1.382,14.462a6.887,6.887,0,0,1-2.789,4.262,4.683,4.683,0,0,1-5.864-.511C94.616,111.564,94.628,109.335,94.994,107.374Z" transform="translate(-76.202 -63.96)" fill="#00245d"/><path d="M2159.3,1374.655s.26,7.946,1.866,8.733l20.572-.359s0-2.375-3.3-2.9-9.1-2.461-10.087-6.767C2165.9,1370.855,2159.3,1374.655,2159.3,1374.655Z" transform="matrix(1, 0.017, -0.017, 1, -2099.686, -1190.12)" fill="#0a1630"/><path d="M2159.87,1374.718s-.314,7.566,1.292,8.353l20.573-.042s0-2.375-3.3-2.9-7.425-1.63-8.408-5.937c-.724-1.779-2.293-.877-4.636-.226A32.93,32.93,0,0,1,2159.87,1374.718Z" transform="matrix(0.999, 0.035, -0.035, 0.999, -2085.039, -1226.724)" fill="#101e3c"/></g><g transform="translate(94.993 8.361)"><rect width="116.6" height="216.001" transform="translate(2.49 3.381)" fill="#fff"/><path d="M299.791,57.835a1.444,1.444,0,0,0,1.444-1.439V41.988a1.444,1.444,0,0,0-1.444-1.439,1.334,1.334,0,0,0-.266,0V13.64a9.29,9.29,0,0,0-9.29-9.29H187.894a9.29,9.29,0,0,0-9.284,9.29V231.028a9.284,9.284,0,0,0,9.284,9.284H290.236a9.284,9.284,0,0,0,9.29-9.284V98.772a1.334,1.334,0,0,0,.266.029,1.439,1.439,0,0,0,1.444-1.439V82.96a1.439,1.439,0,0,0-1.444-1.439,1.341,1.341,0,0,0-.266,0V78.268a1.341,1.341,0,0,0,.266,0,1.439,1.439,0,0,0,1.444-1.439V62.5a1.439,1.439,0,0,0-1.444-1.439,1.334,1.334,0,0,0-.266,0V57.806a1.334,1.334,0,0,0,.266.029Zm-5.644,168.473H183.989V20.376H294.147Z" transform="translate(-178.61 -12.262)" fill="#263238"/><path d="M312.271,61.467c0,.049-2,.11-4.457.128s-4.463,0-4.463-.055,2-.116,4.463-.134S312.271,61.412,312.271,61.467Z" transform="translate(-207.067 -27.372)" fill="#00245d"/><path d="M312.331,65.217c0,.049-2,.11-4.457.128s-4.463,0-4.463-.055,2-.116,4.463-.134S312.331,65.162,312.331,65.217Z" transform="translate(-207.09 -28.839)" fill="#00245d"/><path d="M312.361,68.961c0,.055-1.991.116-4.457.134s-4.463,0-4.463-.061,2-.11,4.463-.128S312.361,68.912,312.361,68.961Z" transform="translate(-207.102 -30.305)" fill="#00245d"/><path d="M179.817,67.414a.213.213,0,0,1-.152-.061l-1.924-1.906a.2.2,0,0,1-.061-.152.219.219,0,0,1,.061-.152l1.924-1.863a.215.215,0,0,1,.3.3L178.2,65.3l1.766,1.748a.219.219,0,0,1,0,.311.213.213,0,0,1-.152.061Z" transform="translate(-164.478 -28.083)" fill="#00245d"/><path d="M187.98,130.4a2.6,2.6,0,1,1-2.6-2.6A2.6,2.6,0,0,1,187.98,130.4Z" transform="translate(-166.473 -71.34)" fill="#e8505b"/><path d="M186.066,132.351a.14.14,0,0,1-.1-.043l-.712-.652a.146.146,0,0,1,0-.213.152.152,0,0,1,.213,0l.609.554,1.139-1.218a.146.146,0,0,1,.213,0,.152.152,0,0,1,0,.213l-1.218,1.3a.164.164,0,0,1-.14.055Z" transform="translate(-167.421 -72.487)" fill="#fff"/><path d="M270.377,136.576a3.756,3.756,0,0,0,.606-.073,3.214,3.214,0,0,0,2.722-3.124V120.866a8.964,8.964,0,0,0-.059-1.449,3.141,3.141,0,0,0-1.954-2.253,4.051,4.051,0,0,0-1.661-.237h-9.489l-84.012.049A3.283,3.283,0,0,0,174,118.125a2.962,2.962,0,0,0-.612,1.218,6.03,6.03,0,0,0-.072,1.382v12.587a3.067,3.067,0,0,0,.261,1.279,3.188,3.188,0,0,0,1.993,1.687,4.487,4.487,0,0,0,1.381.134h58.613l25.464.049,6.923.03h0l-6.923.03-25.464.049-37.773.037h-20.84a4.742,4.742,0,0,1-1.478-.152A3.353,3.353,0,0,1,173,133.312V120.738a6.9,6.9,0,0,1,.078-1.449,3.51,3.51,0,0,1,3.471-2.618l84.012.043h9.476a4.367,4.367,0,0,1,1.745.268,3.309,3.309,0,0,1,2.038,2.393,8.17,8.17,0,0,1,.059,1.48v12.513a3.126,3.126,0,0,1-1.192,2.436,3.413,3.413,0,0,1-1.622.712,3.214,3.214,0,0,1-.456.043Z" transform="translate(-162.643 -66.987)" fill="#e31b23"/><path d="M187.98,168.86a2.6,2.6,0,1,1-2.6-2.6A2.6,2.6,0,0,1,187.98,168.86Z" transform="translate(-166.473 -86.38)" fill="#e8505b"/><path d="M186.065,170.8a.164.164,0,0,1-.1-.037l-.712-.658a.149.149,0,0,1,.2-.219l.609.548,1.139-1.218a.146.146,0,0,1,.213,0,.152.152,0,0,1,0,.213l-1.218,1.3A.164.164,0,0,1,186.065,170.8Z" transform="translate(-167.42 -87.52)" fill="#fff"/><path d="M270.373,175.036a3.757,3.757,0,0,0,.606-.073,3.214,3.214,0,0,0,2.722-3.124V159.326a8.971,8.971,0,0,0-.059-1.449,3.141,3.141,0,0,0-1.954-2.253,4.155,4.155,0,0,0-1.661-.237h-9.489l-84.011.049A3.283,3.283,0,0,0,174,156.585a2.962,2.962,0,0,0-.612,1.218,6.031,6.031,0,0,0-.072,1.382v12.58a3.05,3.05,0,0,0,.261,1.279,3.188,3.188,0,0,0,1.993,1.687,4.487,4.487,0,0,0,1.381.134h58.613l25.464.049h0l-25.464.049L197.791,175h-20.84a4.742,4.742,0,0,1-1.478-.152,3.344,3.344,0,0,1-2.488-3.258V159.2a6.9,6.9,0,0,1,.078-1.449,3.51,3.51,0,0,1,3.471-2.618l84.011.043h9.482a4.256,4.256,0,0,1,1.745.262,3.309,3.309,0,0,1,2.038,2.393,8.165,8.165,0,0,1,.059,1.48v12.513a3.125,3.125,0,0,1-1.192,2.436,3.413,3.413,0,0,1-1.622.712,3.209,3.209,0,0,1-.456.043Z" transform="translate(-162.639 -82.028)" fill="#e8505b"/><path d="M187.889,207.258a1.948,1.948,0,0,0-.14-.609,2.607,2.607,0,0,0-.956-1.358,2.436,2.436,0,1,0,0,3.958,2.606,2.606,0,0,0,.956-1.358c.11-.39.11-.609.14-.609a1.382,1.382,0,0,1,0,.652,2.594,2.594,0,0,1-.938,1.5,2.71,2.71,0,0,1-2.582.426,2.74,2.74,0,0,1,0-5.164,2.71,2.71,0,0,1,2.582.426,2.594,2.594,0,0,1,.938,1.5A1.382,1.382,0,0,1,187.889,207.258Z" transform="translate(-166.382 -101.352)" fill="#e0e0e0"/><path d="M270.373,213.5a3.757,3.757,0,0,0,.606-.073,3.35,3.35,0,0,0,1.583-.731,3.062,3.062,0,0,0,1.14-2.393V197.786a8.971,8.971,0,0,0-.059-1.449,3.1,3.1,0,0,0-1.954-2.247,4.049,4.049,0,0,0-1.661-.25h-9.489l-84.011.049A3.283,3.283,0,0,0,174,195.039a2.962,2.962,0,0,0-.612,1.218,6.031,6.031,0,0,0-.072,1.382v12.587a3.039,3.039,0,0,0,.26,1.273,3.188,3.188,0,0,0,1.993,1.687,4.488,4.488,0,0,0,1.381.134h20.84l37.773.03,25.464.049,6.923.03h-6.923l-25.464.049-37.773.037h-20.84a4.742,4.742,0,0,1-1.478-.152,3.345,3.345,0,0,1-2.488-3.252V197.658a6.9,6.9,0,0,1,.078-1.449,3.51,3.51,0,0,1,3.471-2.618l84.011.043h9.482a4.257,4.257,0,0,1,1.745.262,3.309,3.309,0,0,1,2.038,2.393,8.165,8.165,0,0,1,.059,1.48v12.513a3.114,3.114,0,0,1-1.192,2.436,3.413,3.413,0,0,1-1.622.712,3.213,3.213,0,0,1-.456.043Z" transform="translate(-162.639 -97.068)" fill="#e0e0e0"/><path d="M307.8,209.206a.128.128,0,0,1,0,.079l-.98.974a.128.128,0,0,1-.079.03.1.1,0,0,1-.079-.037l-.932-.956a.116.116,0,0,1,0-.158.122.122,0,0,1,.158,0l.852.883.877-.883a.1.1,0,0,1,.152,0A.109.109,0,0,1,307.8,209.206Z" transform="translate(-207.985 -103.136)" fill="#e0e0e0"/><path d="M187.887,244.844a1.948,1.948,0,0,0-.14-.609,2.564,2.564,0,0,0-.956-1.358,2.436,2.436,0,1,0,0,3.952,2.563,2.563,0,0,0,.956-1.358c.11-.384.11-.609.14-.609a1.352,1.352,0,0,1,0,.645,2.606,2.606,0,0,1-.938,1.51,2.733,2.733,0,1,1,0-4.317,2.606,2.606,0,0,1,.938,1.51,1.4,1.4,0,0,1,0,.633Z" transform="translate(-166.38 -116.049)" fill="#e0e0e0"/><path d="M270.373,251.086a4.086,4.086,0,0,0,.606-.067,3.214,3.214,0,0,0,2.722-3.13V235.382a8.933,8.933,0,0,0-.059-1.449,3.141,3.141,0,0,0-1.954-2.253,4.051,4.051,0,0,0-1.661-.244h-9.489l-84.011.043a3.214,3.214,0,0,0-3.139,2.369,6.08,6.08,0,0,0-.072,1.388v12.581a3.067,3.067,0,0,0,.26,1.279,3.189,3.189,0,0,0,1.993,1.681,4.486,4.486,0,0,0,1.381.14h20.84l37.773.037,25.464.049,6.923.03h0l-6.923.03-25.464.055-37.773.03h-20.84a4.742,4.742,0,0,1-1.478-.152,3.344,3.344,0,0,1-2.488-3.258V235.254a6.838,6.838,0,0,1,.078-1.449,3.133,3.133,0,0,1,.651-1.346,3.656,3.656,0,0,1,2.794-1.279l84.011.049h9.508a4.361,4.361,0,0,1,1.745.262,3.334,3.334,0,0,1,2.038,2.393,8.21,8.21,0,0,1,.059,1.486v12.507a3.126,3.126,0,0,1-1.192,2.436,3.413,3.413,0,0,1-1.622.712,2.38,2.38,0,0,1-.456.037Z" transform="translate(-162.639 -111.769)" fill="#e0e0e0"/><path d="M307.8,246.8a.11.11,0,0,1,0,.073l-.95.962a.1.1,0,0,1-.079.03.116.116,0,0,1-.079-.03l-.962-.956a.11.11,0,0,1,0-.152.116.116,0,0,1,.158,0l.852.883.877-.883a.1.1,0,0,1,.152,0A.128.128,0,0,1,307.8,246.8Z" transform="translate(-207.986 -117.836)" fill="#e0e0e0"/><path d="M187.887,282.44a1.948,1.948,0,0,0-.14-.609,2.606,2.606,0,0,0-.956-1.358,2.436,2.436,0,1,0,0,3.958,2.564,2.564,0,0,0,.956-1.358c.11-.39.11-.609.14-.609a1.383,1.383,0,0,1,0,.652,2.576,2.576,0,0,1-.938,1.5,2.73,2.73,0,1,1,0-4.311,2.594,2.594,0,0,1,.938,1.5A1.382,1.382,0,0,1,187.887,282.44Z" transform="translate(-166.38 -130.755)" fill="#e0e0e0"/><path d="M270.373,288.686a3.757,3.757,0,0,0,.606-.073,3.348,3.348,0,0,0,1.583-.731,3.056,3.056,0,0,0,1.14-2.393V272.982a9.043,9.043,0,0,0-.059-1.455,3.1,3.1,0,0,0-1.954-2.247,4.051,4.051,0,0,0-1.661-.244h-9.489l-84.011.049A3.3,3.3,0,0,0,174,270.235a2.962,2.962,0,0,0-.612,1.218,6.03,6.03,0,0,0-.072,1.382v12.587a3.039,3.039,0,0,0,.26,1.273,3.188,3.188,0,0,0,1.993,1.687,4.306,4.306,0,0,0,1.381.134h58.613l25.464.055h6.923l-6.923.03-25.464.049-37.773.037h-20.84a4.735,4.735,0,0,1-1.478-.146,3.356,3.356,0,0,1-2.488-3.258V272.848a6.9,6.9,0,0,1,.078-1.449,3.51,3.51,0,0,1,3.471-2.618l84.011.043h9.482a4.361,4.361,0,0,1,1.745.262,3.334,3.334,0,0,1,2.038,2.393,8.213,8.213,0,0,1,.059,1.486v12.52a3.1,3.1,0,0,1-1.192,2.436,3.413,3.413,0,0,1-1.622.712,2.494,2.494,0,0,1-.456.043Z" transform="translate(-162.639 -126.473)" fill="#e0e0e0"/><path d="M307.818,284.392a.128.128,0,0,1,0,.079l-.95.962a.128.128,0,0,1-.079.03.116.116,0,0,1-.079-.03l-.932-.962a.1.1,0,0,1,0-.152.116.116,0,0,1,.158,0l.852.883.877-.883a.1.1,0,0,1,.152,0,.109.109,0,0,1,0,.073Z" transform="translate(-208.003 -132.536)" fill="#e0e0e0"/><path d="M.977-5.016a.406.406,0,0,1-.293-.117.4.4,0,0,1-.121-.3.4.4,0,0,1,.121-.3.4.4,0,0,1,.293-.119.414.414,0,0,1,.3.119.4.4,0,0,1,.123.3.4.4,0,0,1-.123.293A.41.41,0,0,1,.977-5.016ZM1.289,0H.648V-4h.641ZM6.3,0H5.663V-2.281q0-1.273-.93-1.273a1.008,1.008,0,0,0-.795.361,1.339,1.339,0,0,0-.314.912V0H2.983V-4h.641v.664h.016a1.444,1.444,0,0,1,1.313-.758,1.224,1.224,0,0,1,1,.424A1.888,1.888,0,0,1,6.3-2.445Zm3.46-.039a1.235,1.235,0,0,1-.6.125q-1.051,0-1.051-1.172V-3.453H7.427V-4h.688v-.977l.641-.207V-4H9.763v.547H8.755V-1.2a.934.934,0,0,0,.137.574.546.546,0,0,0,.453.172.674.674,0,0,0,.418-.133Zm4.468-1.8H11.407a1.5,1.5,0,0,0,.359,1.031,1.239,1.239,0,0,0,.945.363,1.965,1.965,0,0,0,1.242-.445v.6a2.322,2.322,0,0,1-1.395.383,1.691,1.691,0,0,1-1.332-.545,2.23,2.23,0,0,1-.484-1.533,2.187,2.187,0,0,1,.529-1.521,1.7,1.7,0,0,1,1.314-.588,1.5,1.5,0,0,1,1.215.508,2.117,2.117,0,0,1,.43,1.41Zm-.656-.543a1.3,1.3,0,0,0-.268-.863.912.912,0,0,0-.732-.309,1.035,1.035,0,0,0-.77.324,1.471,1.471,0,0,0-.391.848Zm4.108-.969A.783.783,0,0,0,17.2-3.48a.818.818,0,0,0-.686.387,1.788,1.788,0,0,0-.275,1.055V0H15.6V-4h.641v.824h.016a1.4,1.4,0,0,1,.418-.658A.953.953,0,0,1,17.3-4.07a1.046,1.046,0,0,1,.383.055ZM21.99-1.84H19.166a1.5,1.5,0,0,0,.359,1.031,1.239,1.239,0,0,0,.945.363,1.965,1.965,0,0,0,1.242-.445v.6a2.322,2.322,0,0,1-1.395.383,1.691,1.691,0,0,1-1.332-.545A2.23,2.23,0,0,1,18.5-1.984a2.187,2.187,0,0,1,.529-1.521,1.7,1.7,0,0,1,1.314-.588,1.5,1.5,0,0,1,1.215.508,2.117,2.117,0,0,1,.43,1.41Zm-.656-.543a1.3,1.3,0,0,0-.268-.863.912.912,0,0,0-.732-.309,1.035,1.035,0,0,0-.77.324,1.471,1.471,0,0,0-.391.848Zm1.78,2.238V-.832a1.9,1.9,0,0,0,1.152.387q.844,0,.844-.562a.488.488,0,0,0-.072-.271.72.72,0,0,0-.2-.2,1.5,1.5,0,0,0-.289-.154q-.166-.068-.357-.143a4.6,4.6,0,0,1-.467-.213,1.41,1.41,0,0,1-.336-.242.9.9,0,0,1-.2-.307,1.085,1.085,0,0,1-.068-.4.956.956,0,0,1,.129-.5,1.143,1.143,0,0,1,.344-.363,1.6,1.6,0,0,1,.49-.221,2.175,2.175,0,0,1,.568-.074,2.3,2.3,0,0,1,.93.18v.648a1.812,1.812,0,0,0-1.016-.289,1.187,1.187,0,0,0-.324.041.794.794,0,0,0-.248.115.532.532,0,0,0-.16.178.468.468,0,0,0-.057.229.548.548,0,0,0,.057.262A.576.576,0,0,0,24-2.543a1.269,1.269,0,0,0,.266.148q.156.066.355.145a4.947,4.947,0,0,1,.477.209,1.635,1.635,0,0,1,.359.242.946.946,0,0,1,.229.311,1,1,0,0,1,.08.418.985.985,0,0,1-.131.516,1.122,1.122,0,0,1-.35.363,1.6,1.6,0,0,1-.5.215,2.488,2.488,0,0,1-.6.07A2.269,2.269,0,0,1,23.114-.145ZM29-.039a1.235,1.235,0,0,1-.6.125q-1.051,0-1.051-1.172V-3.453h-.687V-4h.688v-.977L28-5.184V-4H29v.547H28V-1.2a.934.934,0,0,0,.137.574.546.546,0,0,0,.453.172A.674.674,0,0,0,29-.586Zm1.011-.105V-.832a1.9,1.9,0,0,0,1.152.387q.844,0,.844-.562a.488.488,0,0,0-.072-.271.72.72,0,0,0-.2-.2,1.5,1.5,0,0,0-.289-.154q-.166-.068-.357-.143a4.6,4.6,0,0,1-.467-.213,1.41,1.41,0,0,1-.336-.242.9.9,0,0,1-.2-.307,1.085,1.085,0,0,1-.068-.4.956.956,0,0,1,.129-.5,1.143,1.143,0,0,1,.344-.363,1.6,1.6,0,0,1,.49-.221,2.175,2.175,0,0,1,.568-.074,2.3,2.3,0,0,1,.93.18v.648a1.812,1.812,0,0,0-1.016-.289,1.187,1.187,0,0,0-.324.041A.794.794,0,0,0,30.9-3.4a.532.532,0,0,0-.16.178.468.468,0,0,0-.057.229.548.548,0,0,0,.057.262.576.576,0,0,0,.166.188,1.269,1.269,0,0,0,.266.148q.156.066.355.145A4.947,4.947,0,0,1,32-2.041a1.634,1.634,0,0,1,.359.242.946.946,0,0,1,.229.311,1,1,0,0,1,.08.418.985.985,0,0,1-.131.516,1.122,1.122,0,0,1-.35.363,1.6,1.6,0,0,1-.5.215,2.488,2.488,0,0,1-.6.07A2.269,2.269,0,0,1,30.014-.145Z" transform="translate(40.001 39.068)" fill="#00245d"/><path d="M.612-3.756A.218.218,0,0,1,.457-3.82.217.217,0,0,1,.39-3.984a.2.2,0,0,1,.069-.157A.228.228,0,0,1,.612-4.2a.239.239,0,0,1,.16.059.2.2,0,0,1,.069.158.22.22,0,0,1-.067.161A.22.22,0,0,1,.612-3.756ZM.48,0V-3H.75V0ZM3.75,0V-1.746q0-1.081-.779-1.081a.9.9,0,0,0-.712.318,1.151,1.151,0,0,0-.278.787V0h-.27V-3h.27v.545h.012a1.086,1.086,0,0,1,1.025-.618.9.9,0,0,1,.744.324,1.453,1.453,0,0,1,.258.924V0ZM6.108-.041a.93.93,0,0,1-.4.1q-.665,0-.665-.8V-2.754H4.509V-3h.539v-.779l.135-.047q.07-.021.135-.044V-3h.791v.246H5.317v1.98a.8.8,0,0,0,.1.45.378.378,0,0,0,.333.139.744.744,0,0,0,.36-.108Zm.659-1.447a1.484,1.484,0,0,0,.286.967.958.958,0,0,0,.784.349,1.6,1.6,0,0,0,.984-.372v.287a1.753,1.753,0,0,1-1.04.331,1.176,1.176,0,0,1-.937-.416,1.749,1.749,0,0,1-.357-1.175A1.673,1.673,0,0,1,6.86-2.624a1.2,1.2,0,0,1,.971-.45,1.014,1.014,0,0,1,.858.393,1.731,1.731,0,0,1,.3,1.072v.12Zm1.939-.246a1.327,1.327,0,0,0-.249-.806.775.775,0,0,0-.639-.287.937.937,0,0,0-.7.283,1.357,1.357,0,0,0-.341.81Zm2.44-.984a.529.529,0,0,0-.316-.1.7.7,0,0,0-.595.366A1.892,1.892,0,0,0,10-1.409V0H9.732V-3H10v.665h.012a1.092,1.092,0,0,1,.325-.533.77.77,0,0,1,.516-.19.8.8,0,0,1,.3.053Zm.51,1.23a1.484,1.484,0,0,0,.286.967.958.958,0,0,0,.784.349,1.6,1.6,0,0,0,.984-.372v.287a1.753,1.753,0,0,1-1.04.331,1.176,1.176,0,0,1-.937-.416,1.749,1.749,0,0,1-.357-1.175,1.673,1.673,0,0,1,.374-1.106,1.2,1.2,0,0,1,.971-.45,1.014,1.014,0,0,1,.858.393,1.731,1.731,0,0,1,.3,1.072v.12ZM13.6-1.734a1.327,1.327,0,0,0-.249-.806.775.775,0,0,0-.639-.287.937.937,0,0,0-.7.283,1.357,1.357,0,0,0-.341.81Zm.87,1.6V-.457a1.129,1.129,0,0,0,.369.208,1.16,1.16,0,0,0,.375.076q.706,0,.706-.577a.442.442,0,0,0-.155-.34,1.873,1.873,0,0,0-.5-.29,1.711,1.711,0,0,1-.6-.388.718.718,0,0,1-.174-.488.724.724,0,0,1,.28-.592,1.064,1.064,0,0,1,.69-.226,1.308,1.308,0,0,1,.662.158v.3a1.253,1.253,0,0,0-.691-.217.714.714,0,0,0-.478.154.5.5,0,0,0-.182.4.515.515,0,0,0,.114.347,1.532,1.532,0,0,0,.5.306,2.207,2.207,0,0,1,.645.391A.657.657,0,0,1,16.2-.75a.748.748,0,0,1-.268.59,1.091,1.091,0,0,1-.74.233A1.222,1.222,0,0,1,14.467-.132Zm3.671.091a.93.93,0,0,1-.4.1q-.665,0-.665-.8V-2.754h-.539V-3h.539v-.779l.135-.047q.07-.021.135-.044V-3h.791v.246h-.791v1.98a.8.8,0,0,0,.1.45.378.378,0,0,0,.333.139.744.744,0,0,0,.36-.108Zm.439-.091V-.457a1.129,1.129,0,0,0,.369.208,1.16,1.16,0,0,0,.375.076q.706,0,.706-.577a.442.442,0,0,0-.155-.34,1.873,1.873,0,0,0-.5-.29,1.711,1.711,0,0,1-.6-.388.718.718,0,0,1-.174-.488.724.724,0,0,1,.28-.592,1.064,1.064,0,0,1,.69-.226,1.308,1.308,0,0,1,.662.158v.3a1.253,1.253,0,0,0-.691-.217.714.714,0,0,0-.478.154.5.5,0,0,0-.182.4.515.515,0,0,0,.114.347,1.532,1.532,0,0,0,.5.306,2.207,2.207,0,0,1,.645.391.657.657,0,0,1,.176.479.748.748,0,0,1-.268.59,1.091,1.091,0,0,1-.74.233A1.222,1.222,0,0,1,18.577-.132Zm5.188-4.163V0H23.5V-3.87a2.138,2.138,0,0,1-.461.334,3.92,3.92,0,0,1-.567.249v-.246a2.755,2.755,0,0,0,.343-.139,2.959,2.959,0,0,0,.3-.171A2.965,2.965,0,0,0,23.4-4.05q.136-.113.277-.245Z" transform="translate(26.822 62.068)" fill="#00245d"/><path d="M.612-3.756A.218.218,0,0,1,.457-3.82.217.217,0,0,1,.39-3.984a.2.2,0,0,1,.069-.157A.228.228,0,0,1,.612-4.2a.239.239,0,0,1,.16.059.2.2,0,0,1,.069.158.22.22,0,0,1-.067.161A.22.22,0,0,1,.612-3.756ZM.48,0V-3H.75V0ZM3.75,0V-1.746q0-1.081-.779-1.081a.9.9,0,0,0-.712.318,1.151,1.151,0,0,0-.278.787V0h-.27V-3h.27v.545h.012a1.086,1.086,0,0,1,1.025-.618.9.9,0,0,1,.744.324,1.453,1.453,0,0,1,.258.924V0ZM6.108-.041a.93.93,0,0,1-.4.1q-.665,0-.665-.8V-2.754H4.509V-3h.539v-.779l.135-.047q.07-.021.135-.044V-3h.791v.246H5.317v1.98a.8.8,0,0,0,.1.45.378.378,0,0,0,.333.139.744.744,0,0,0,.36-.108Zm.659-1.447a1.484,1.484,0,0,0,.286.967.958.958,0,0,0,.784.349,1.6,1.6,0,0,0,.984-.372v.287a1.753,1.753,0,0,1-1.04.331,1.176,1.176,0,0,1-.937-.416,1.749,1.749,0,0,1-.357-1.175A1.673,1.673,0,0,1,6.86-2.624a1.2,1.2,0,0,1,.971-.45,1.014,1.014,0,0,1,.858.393,1.731,1.731,0,0,1,.3,1.072v.12Zm1.939-.246a1.327,1.327,0,0,0-.249-.806.775.775,0,0,0-.639-.287.937.937,0,0,0-.7.283,1.357,1.357,0,0,0-.341.81Zm2.44-.984a.529.529,0,0,0-.316-.1.7.7,0,0,0-.595.366A1.892,1.892,0,0,0,10-1.409V0H9.732V-3H10v.665h.012a1.092,1.092,0,0,1,.325-.533.77.77,0,0,1,.516-.19.8.8,0,0,1,.3.053Zm.51,1.23a1.484,1.484,0,0,0,.286.967.958.958,0,0,0,.784.349,1.6,1.6,0,0,0,.984-.372v.287a1.753,1.753,0,0,1-1.04.331,1.176,1.176,0,0,1-.937-.416,1.749,1.749,0,0,1-.357-1.175,1.673,1.673,0,0,1,.374-1.106,1.2,1.2,0,0,1,.971-.45,1.014,1.014,0,0,1,.858.393,1.731,1.731,0,0,1,.3,1.072v.12ZM13.6-1.734a1.327,1.327,0,0,0-.249-.806.775.775,0,0,0-.639-.287.937.937,0,0,0-.7.283,1.357,1.357,0,0,0-.341.81Zm.87,1.6V-.457a1.129,1.129,0,0,0,.369.208,1.16,1.16,0,0,0,.375.076q.706,0,.706-.577a.442.442,0,0,0-.155-.34,1.873,1.873,0,0,0-.5-.29,1.711,1.711,0,0,1-.6-.388.718.718,0,0,1-.174-.488.724.724,0,0,1,.28-.592,1.064,1.064,0,0,1,.69-.226,1.308,1.308,0,0,1,.662.158v.3a1.253,1.253,0,0,0-.691-.217.714.714,0,0,0-.478.154.5.5,0,0,0-.182.4.515.515,0,0,0,.114.347,1.532,1.532,0,0,0,.5.306,2.207,2.207,0,0,1,.645.391A.657.657,0,0,1,16.2-.75a.748.748,0,0,1-.268.59,1.091,1.091,0,0,1-.74.233A1.222,1.222,0,0,1,14.467-.132Zm3.671.091a.93.93,0,0,1-.4.1q-.665,0-.665-.8V-2.754h-.539V-3h.539v-.779l.135-.047q.07-.021.135-.044V-3h.791v.246h-.791v1.98a.8.8,0,0,0,.1.45.378.378,0,0,0,.333.139.744.744,0,0,0,.36-.108Zm.439-.091V-.457a1.129,1.129,0,0,0,.369.208,1.16,1.16,0,0,0,.375.076q.706,0,.706-.577a.442.442,0,0,0-.155-.34,1.873,1.873,0,0,0-.5-.29,1.711,1.711,0,0,1-.6-.388.718.718,0,0,1-.174-.488.724.724,0,0,1,.28-.592,1.064,1.064,0,0,1,.69-.226,1.308,1.308,0,0,1,.662.158v.3a1.253,1.253,0,0,0-.691-.217.714.714,0,0,0-.478.154.5.5,0,0,0-.182.4.515.515,0,0,0,.114.347,1.532,1.532,0,0,0,.5.306,2.207,2.207,0,0,1,.645.391.657.657,0,0,1,.176.479.748.748,0,0,1-.268.59,1.091,1.091,0,0,1-.74.233A1.222,1.222,0,0,1,18.577-.132Zm3.984-.018V-.457a1.792,1.792,0,0,0,.905.284,1.142,1.142,0,0,0,.794-.259.871.871,0,0,0,.287-.678.818.818,0,0,0-.33-.706,1.575,1.575,0,0,0-.939-.24h-.322V-2.3h.287a1.333,1.333,0,0,0,.857-.239.82.82,0,0,0,.294-.675.8.8,0,0,0-.214-.593.842.842,0,0,0-.624-.215,1.554,1.554,0,0,0-.829.275v-.287a1.988,1.988,0,0,1,.87-.234,1.117,1.117,0,0,1,.79.27.927.927,0,0,1,.292.715A1.026,1.026,0,0,1,23.862-2.2v.012a1.069,1.069,0,0,1,.7.327,1,1,0,0,1,.264.713,1.128,1.128,0,0,1-.381.888,1.435,1.435,0,0,1-.987.337A1.933,1.933,0,0,1,22.562-.149Z" transform="translate(26.843 108.068)" fill="#00245d"/><path d="M.612-3.756A.218.218,0,0,1,.457-3.82.217.217,0,0,1,.39-3.984a.2.2,0,0,1,.069-.157A.228.228,0,0,1,.612-4.2a.239.239,0,0,1,.16.059.2.2,0,0,1,.069.158.22.22,0,0,1-.067.161A.22.22,0,0,1,.612-3.756ZM.48,0V-3H.75V0ZM3.75,0V-1.746q0-1.081-.779-1.081a.9.9,0,0,0-.712.318,1.151,1.151,0,0,0-.278.787V0h-.27V-3h.27v.545h.012a1.086,1.086,0,0,1,1.025-.618.9.9,0,0,1,.744.324,1.453,1.453,0,0,1,.258.924V0ZM6.108-.041a.93.93,0,0,1-.4.1q-.665,0-.665-.8V-2.754H4.509V-3h.539v-.779l.135-.047q.07-.021.135-.044V-3h.791v.246H5.317v1.98a.8.8,0,0,0,.1.45.378.378,0,0,0,.333.139.744.744,0,0,0,.36-.108Zm.659-1.447a1.484,1.484,0,0,0,.286.967.958.958,0,0,0,.784.349,1.6,1.6,0,0,0,.984-.372v.287a1.753,1.753,0,0,1-1.04.331,1.176,1.176,0,0,1-.937-.416,1.749,1.749,0,0,1-.357-1.175A1.673,1.673,0,0,1,6.86-2.624a1.2,1.2,0,0,1,.971-.45,1.014,1.014,0,0,1,.858.393,1.731,1.731,0,0,1,.3,1.072v.12Zm1.939-.246a1.327,1.327,0,0,0-.249-.806.775.775,0,0,0-.639-.287.937.937,0,0,0-.7.283,1.357,1.357,0,0,0-.341.81Zm2.44-.984a.529.529,0,0,0-.316-.1.7.7,0,0,0-.595.366A1.892,1.892,0,0,0,10-1.409V0H9.732V-3H10v.665h.012a1.092,1.092,0,0,1,.325-.533.77.77,0,0,1,.516-.19.8.8,0,0,1,.3.053Zm.51,1.23a1.484,1.484,0,0,0,.286.967.958.958,0,0,0,.784.349,1.6,1.6,0,0,0,.984-.372v.287a1.753,1.753,0,0,1-1.04.331,1.176,1.176,0,0,1-.937-.416,1.749,1.749,0,0,1-.357-1.175,1.673,1.673,0,0,1,.374-1.106,1.2,1.2,0,0,1,.971-.45,1.014,1.014,0,0,1,.858.393,1.731,1.731,0,0,1,.3,1.072v.12ZM13.6-1.734a1.327,1.327,0,0,0-.249-.806.775.775,0,0,0-.639-.287.937.937,0,0,0-.7.283,1.357,1.357,0,0,0-.341.81Zm.87,1.6V-.457a1.129,1.129,0,0,0,.369.208,1.16,1.16,0,0,0,.375.076q.706,0,.706-.577a.442.442,0,0,0-.155-.34,1.873,1.873,0,0,0-.5-.29,1.711,1.711,0,0,1-.6-.388.718.718,0,0,1-.174-.488.724.724,0,0,1,.28-.592,1.064,1.064,0,0,1,.69-.226,1.308,1.308,0,0,1,.662.158v.3a1.253,1.253,0,0,0-.691-.217.714.714,0,0,0-.478.154.5.5,0,0,0-.182.4.515.515,0,0,0,.114.347,1.532,1.532,0,0,0,.5.306,2.207,2.207,0,0,1,.645.391A.657.657,0,0,1,16.2-.75a.748.748,0,0,1-.268.59,1.091,1.091,0,0,1-.74.233A1.222,1.222,0,0,1,14.467-.132Zm3.671.091a.93.93,0,0,1-.4.1q-.665,0-.665-.8V-2.754h-.539V-3h.539v-.779l.135-.047q.07-.021.135-.044V-3h.791v.246h-.791v1.98a.8.8,0,0,0,.1.45.378.378,0,0,0,.333.139.744.744,0,0,0,.36-.108Zm.439-.091V-.457a1.129,1.129,0,0,0,.369.208,1.16,1.16,0,0,0,.375.076q.706,0,.706-.577a.442.442,0,0,0-.155-.34,1.873,1.873,0,0,0-.5-.29,1.711,1.711,0,0,1-.6-.388.718.718,0,0,1-.174-.488.724.724,0,0,1,.28-.592,1.064,1.064,0,0,1,.69-.226,1.308,1.308,0,0,1,.662.158v.3a1.253,1.253,0,0,0-.691-.217.714.714,0,0,0-.478.154.5.5,0,0,0-.182.4.515.515,0,0,0,.114.347,1.532,1.532,0,0,0,.5.306,2.207,2.207,0,0,1,.645.391.657.657,0,0,1,.176.479.748.748,0,0,1-.268.59,1.091,1.091,0,0,1-.74.233A1.222,1.222,0,0,1,18.577-.132ZM22.506,0V-.2a1.76,1.76,0,0,1,.032-.353,1.168,1.168,0,0,1,.1-.289,1.238,1.238,0,0,1,.164-.248,2.307,2.307,0,0,1,.229-.231q.13-.116.3-.237l.362-.265q.19-.138.356-.272a1.882,1.882,0,0,0,.289-.29,1.3,1.3,0,0,0,.195-.341,1.178,1.178,0,0,0,.072-.426.873.873,0,0,0-.23-.646.873.873,0,0,0-.646-.23,1.256,1.256,0,0,0-.542.123,2.183,2.183,0,0,0-.51.343v-.316a2.025,2.025,0,0,1,.519-.29,1.623,1.623,0,0,1,.58-.105,1.3,1.3,0,0,1,.457.076.991.991,0,0,1,.35.217.96.96,0,0,1,.224.34,1.2,1.2,0,0,1,.079.445,1.467,1.467,0,0,1-.083.514,1.51,1.51,0,0,1-.227.407,2.064,2.064,0,0,1-.335.337q-.192.154-.406.306-.284.2-.48.359a2.152,2.152,0,0,0-.319.306.991.991,0,0,0-.177.308A1.129,1.129,0,0,0,22.8-.29v.044h2.089V0Z" transform="translate(26.843 84.068)" fill="#00245d"/><path d="M.612-3.756A.218.218,0,0,1,.457-3.82.217.217,0,0,1,.39-3.984a.2.2,0,0,1,.069-.157A.228.228,0,0,1,.612-4.2a.239.239,0,0,1,.16.059.2.2,0,0,1,.069.158.22.22,0,0,1-.067.161A.22.22,0,0,1,.612-3.756ZM.48,0V-3H.75V0ZM3.75,0V-1.746q0-1.081-.779-1.081a.9.9,0,0,0-.712.318,1.151,1.151,0,0,0-.278.787V0h-.27V-3h.27v.545h.012a1.086,1.086,0,0,1,1.025-.618.9.9,0,0,1,.744.324,1.453,1.453,0,0,1,.258.924V0ZM6.108-.041a.93.93,0,0,1-.4.1q-.665,0-.665-.8V-2.754H4.509V-3h.539v-.779l.135-.047q.07-.021.135-.044V-3h.791v.246H5.317v1.98a.8.8,0,0,0,.1.45.378.378,0,0,0,.333.139.744.744,0,0,0,.36-.108Zm.659-1.447a1.484,1.484,0,0,0,.286.967.958.958,0,0,0,.784.349,1.6,1.6,0,0,0,.984-.372v.287a1.753,1.753,0,0,1-1.04.331,1.176,1.176,0,0,1-.937-.416,1.749,1.749,0,0,1-.357-1.175A1.673,1.673,0,0,1,6.86-2.624a1.2,1.2,0,0,1,.971-.45,1.014,1.014,0,0,1,.858.393,1.731,1.731,0,0,1,.3,1.072v.12Zm1.939-.246a1.327,1.327,0,0,0-.249-.806.775.775,0,0,0-.639-.287.937.937,0,0,0-.7.283,1.357,1.357,0,0,0-.341.81Zm2.44-.984a.529.529,0,0,0-.316-.1.7.7,0,0,0-.595.366A1.892,1.892,0,0,0,10-1.409V0H9.732V-3H10v.665h.012a1.092,1.092,0,0,1,.325-.533.77.77,0,0,1,.516-.19.8.8,0,0,1,.3.053Zm.51,1.23a1.484,1.484,0,0,0,.286.967.958.958,0,0,0,.784.349,1.6,1.6,0,0,0,.984-.372v.287a1.753,1.753,0,0,1-1.04.331,1.176,1.176,0,0,1-.937-.416,1.749,1.749,0,0,1-.357-1.175,1.673,1.673,0,0,1,.374-1.106,1.2,1.2,0,0,1,.971-.45,1.014,1.014,0,0,1,.858.393,1.731,1.731,0,0,1,.3,1.072v.12ZM13.6-1.734a1.327,1.327,0,0,0-.249-.806.775.775,0,0,0-.639-.287.937.937,0,0,0-.7.283,1.357,1.357,0,0,0-.341.81Zm.87,1.6V-.457a1.129,1.129,0,0,0,.369.208,1.16,1.16,0,0,0,.375.076q.706,0,.706-.577a.442.442,0,0,0-.155-.34,1.873,1.873,0,0,0-.5-.29,1.711,1.711,0,0,1-.6-.388.718.718,0,0,1-.174-.488.724.724,0,0,1,.28-.592,1.064,1.064,0,0,1,.69-.226,1.308,1.308,0,0,1,.662.158v.3a1.253,1.253,0,0,0-.691-.217.714.714,0,0,0-.478.154.5.5,0,0,0-.182.4.515.515,0,0,0,.114.347,1.532,1.532,0,0,0,.5.306,2.207,2.207,0,0,1,.645.391A.657.657,0,0,1,16.2-.75a.748.748,0,0,1-.268.59,1.091,1.091,0,0,1-.74.233A1.222,1.222,0,0,1,14.467-.132Zm3.671.091a.93.93,0,0,1-.4.1q-.665,0-.665-.8V-2.754h-.539V-3h.539v-.779l.135-.047q.07-.021.135-.044V-3h.791v.246h-.791v1.98a.8.8,0,0,0,.1.45.378.378,0,0,0,.333.139.744.744,0,0,0,.36-.108Zm.439-.091V-.457a1.129,1.129,0,0,0,.369.208,1.16,1.16,0,0,0,.375.076q.706,0,.706-.577a.442.442,0,0,0-.155-.34,1.873,1.873,0,0,0-.5-.29,1.711,1.711,0,0,1-.6-.388.718.718,0,0,1-.174-.488.724.724,0,0,1,.28-.592,1.064,1.064,0,0,1,.69-.226,1.308,1.308,0,0,1,.662.158v.3a1.253,1.253,0,0,0-.691-.217.714.714,0,0,0-.478.154.5.5,0,0,0-.182.4.515.515,0,0,0,.114.347,1.532,1.532,0,0,0,.5.306,2.207,2.207,0,0,1,.645.391.657.657,0,0,1,.176.479.748.748,0,0,1-.268.59,1.091,1.091,0,0,1-.74.233A1.222,1.222,0,0,1,18.577-.132ZM24.645-4.2v2.859H25.3V-1.1h-.656V0h-.27V-1.1h-2v-.264q.281-.319.571-.687t.555-.743q.265-.375.488-.738t.372-.671ZM22.682-1.342h1.693V-3.721q-.214.369-.444.715t-.454.652q-.224.306-.429.564T22.682-1.342Z" transform="translate(26.843 130.068)" fill="#00245d"/><path d="M.612-3.756A.218.218,0,0,1,.457-3.82.217.217,0,0,1,.39-3.984a.2.2,0,0,1,.069-.157A.228.228,0,0,1,.612-4.2a.239.239,0,0,1,.16.059.2.2,0,0,1,.069.158.22.22,0,0,1-.067.161A.22.22,0,0,1,.612-3.756ZM.48,0V-3H.75V0ZM3.75,0V-1.746q0-1.081-.779-1.081a.9.9,0,0,0-.712.318,1.151,1.151,0,0,0-.278.787V0h-.27V-3h.27v.545h.012a1.086,1.086,0,0,1,1.025-.618.9.9,0,0,1,.744.324,1.453,1.453,0,0,1,.258.924V0ZM6.108-.041a.93.93,0,0,1-.4.1q-.665,0-.665-.8V-2.754H4.509V-3h.539v-.779l.135-.047q.07-.021.135-.044V-3h.791v.246H5.317v1.98a.8.8,0,0,0,.1.45.378.378,0,0,0,.333.139.744.744,0,0,0,.36-.108Zm.659-1.447a1.484,1.484,0,0,0,.286.967.958.958,0,0,0,.784.349,1.6,1.6,0,0,0,.984-.372v.287a1.753,1.753,0,0,1-1.04.331,1.176,1.176,0,0,1-.937-.416,1.749,1.749,0,0,1-.357-1.175A1.673,1.673,0,0,1,6.86-2.624a1.2,1.2,0,0,1,.971-.45,1.014,1.014,0,0,1,.858.393,1.731,1.731,0,0,1,.3,1.072v.12Zm1.939-.246a1.327,1.327,0,0,0-.249-.806.775.775,0,0,0-.639-.287.937.937,0,0,0-.7.283,1.357,1.357,0,0,0-.341.81Zm2.44-.984a.529.529,0,0,0-.316-.1.7.7,0,0,0-.595.366A1.892,1.892,0,0,0,10-1.409V0H9.732V-3H10v.665h.012a1.092,1.092,0,0,1,.325-.533.77.77,0,0,1,.516-.19.8.8,0,0,1,.3.053Zm.51,1.23a1.484,1.484,0,0,0,.286.967.958.958,0,0,0,.784.349,1.6,1.6,0,0,0,.984-.372v.287a1.753,1.753,0,0,1-1.04.331,1.176,1.176,0,0,1-.937-.416,1.749,1.749,0,0,1-.357-1.175,1.673,1.673,0,0,1,.374-1.106,1.2,1.2,0,0,1,.971-.45,1.014,1.014,0,0,1,.858.393,1.731,1.731,0,0,1,.3,1.072v.12ZM13.6-1.734a1.327,1.327,0,0,0-.249-.806.775.775,0,0,0-.639-.287.937.937,0,0,0-.7.283,1.357,1.357,0,0,0-.341.81Zm.87,1.6V-.457a1.129,1.129,0,0,0,.369.208,1.16,1.16,0,0,0,.375.076q.706,0,.706-.577a.442.442,0,0,0-.155-.34,1.873,1.873,0,0,0-.5-.29,1.711,1.711,0,0,1-.6-.388.718.718,0,0,1-.174-.488.724.724,0,0,1,.28-.592,1.064,1.064,0,0,1,.69-.226,1.308,1.308,0,0,1,.662.158v.3a1.253,1.253,0,0,0-.691-.217.714.714,0,0,0-.478.154.5.5,0,0,0-.182.4.515.515,0,0,0,.114.347,1.532,1.532,0,0,0,.5.306,2.207,2.207,0,0,1,.645.391A.657.657,0,0,1,16.2-.75a.748.748,0,0,1-.268.59,1.091,1.091,0,0,1-.74.233A1.222,1.222,0,0,1,14.467-.132Zm3.671.091a.93.93,0,0,1-.4.1q-.665,0-.665-.8V-2.754h-.539V-3h.539v-.779l.135-.047q.07-.021.135-.044V-3h.791v.246h-.791v1.98a.8.8,0,0,0,.1.45.378.378,0,0,0,.333.139.744.744,0,0,0,.36-.108Zm.439-.091V-.457a1.129,1.129,0,0,0,.369.208,1.16,1.16,0,0,0,.375.076q.706,0,.706-.577a.442.442,0,0,0-.155-.34,1.873,1.873,0,0,0-.5-.29,1.711,1.711,0,0,1-.6-.388.718.718,0,0,1-.174-.488.724.724,0,0,1,.28-.592,1.064,1.064,0,0,1,.69-.226,1.308,1.308,0,0,1,.662.158v.3a1.253,1.253,0,0,0-.691-.217.714.714,0,0,0-.478.154.5.5,0,0,0-.182.4.515.515,0,0,0,.114.347,1.532,1.532,0,0,0,.5.306,2.207,2.207,0,0,1,.645.391.657.657,0,0,1,.176.479.748.748,0,0,1-.268.59,1.091,1.091,0,0,1-.74.233A1.222,1.222,0,0,1,18.577-.132Zm4.116.047V-.4a1.653,1.653,0,0,0,.8.223A1.1,1.1,0,0,0,24.3-.457a1.01,1.01,0,0,0,.29-.756q0-1.025-1.169-1.025a5.938,5.938,0,0,0-.6.035l.126-2h1.749v.246H23.186l-.1,1.494q.3-.023.434-.023a1.408,1.408,0,0,1,1.008.327,1.2,1.2,0,0,1,.343.91,1.3,1.3,0,0,1-.363.955,1.4,1.4,0,0,1-1.037.366A1.815,1.815,0,0,1,22.693-.085Z" transform="translate(26.843 154.068)" fill="#00245d"/><g transform="translate(-0.308 -2.38)"><rect width="9.134" height="5.009" transform="translate(95.66 18.164)" fill="none" stroke="#263238" stroke-linecap="round" stroke-linejoin="round" stroke-width="0.82"/><rect width="7.123" height="5.009" transform="translate(95.66 18.164)" fill="#263238" stroke="#263238" stroke-linecap="round" stroke-linejoin="round" stroke-width="0.73"/><rect width="1.288" height="2.207" transform="translate(104.77 19.562)" fill="#263238" stroke="#263238" stroke-linecap="round" stroke-linejoin="round" stroke-width="0.73"/><rect width="1.675" height="2.871" transform="translate(10.863 19.718)" fill="#263238" stroke="#263238" stroke-linecap="round" stroke-linejoin="round" stroke-width="0.88"/><rect width="1.675" height="3.876" transform="translate(13.491 18.707)" fill="#263238" stroke="#263238" stroke-linecap="round" stroke-linejoin="round" stroke-width="0.88"/><rect width="1.675" height="5.072" transform="translate(16.126 17.517)" fill="#263238" stroke="#263238" stroke-linecap="round" stroke-linejoin="round" stroke-width="0.88"/></g></g><g transform="translate(8.22 15.612)"><path d="M367.009,47.591H342.676a10.866,10.866,0,0,1-10.9-10.866h0a10.866,10.866,0,0,1,10.9-10.866h24.333a10.866,10.866,0,0,1,10.866,10.866h0A10.866,10.866,0,0,1,367.009,47.591Z" transform="translate(-331.78 -25.86)" fill="#00245d"/><path d="M348.51,57.633l7.9,7.751,1.437-8.324Z" transform="translate(-321.847 -38.304)" fill="#00245d"/><path d="M347.44,37.551a2.873,2.873,0,0,1,4.063.042l.736.749.755-.742a2.886,2.886,0,1,1,4.038,4.123l-2.8,2.753h0c-.543.536-1.229,1.623-1.992,1.615s-1.539-1.111-2.071-1.658l-2.795-2.819A2.873,2.873,0,0,1,347.44,37.551Z" transform="translate(-320.728 -30.169)" fill="#fff"/><line x1="11.198" transform="translate(10.021 8.349)" fill="none" stroke="#fff" stroke-linecap="round" stroke-linejoin="round" stroke-width="1.02"/><line x1="5.91" transform="translate(15.309 11.452)" fill="none" stroke="#fff" stroke-linecap="round" stroke-linejoin="round" stroke-width="1.02"/></g></g></svg>