<svg xmlns="http://www.w3.org/2000/svg" xmlns:xlink="http://www.w3.org/1999/xlink" width="300.323" height="275.248" viewBox="0 0 300.323 275.248"><defs><filter id="a" x="85.001" y="101.556" width="66.377" height="45.678" filterUnits="userSpaceOnUse"><feOffset input="SourceAlpha"/><feGaussianBlur stdDeviation="1" result="b"/><feFlood flood-opacity="0.161"/><feComposite operator="in" in2="b"/><feComposite in="SourceGraphic"/></filter></defs><g transform="translate(-0.609 -36.742)"><g transform="translate(30.062 36.742)"><path d="M258.05,68.4c-1.392-10.844-4.113-21.237-9.821-30.7C237.68,20.1,218.667,9.475,199.36,4.085,183.184-.432,165.766-1.738,149.625,2.93,131.912,8.048,117.053,19.845,101.1,29.094A251.921,251.921,0,0,1,64.649,46.218c-10.156,3.888-23.068,6.066-31.416,13.455A83.908,83.908,0,0,0,19.743,75.1C4.145,97.814-.916,126.832,1.493,153.91c1.675,18.828,6.869,37.938,18.5,52.913,16.338,20.971,44.368,31.306,70.828,28.7,30.041-2.952,58.488-20.9,88.35-16.6,14.865,2.143,29.088,9.786,44.033,8.365,14.737-1.4,27.355-11.554,36.246-23.369,7.129-9.5,11.872-20.971,12.311-32.93.474-12.941-5.379-24.732-8.319-37.089C258.31,112.285,260.869,90.2,258.05,68.4Z" transform="translate(-0.923 -0.002)" fill="#002961" opacity="0.1"/></g><g transform="translate(31.141 311.49)"><line x2="91.856" transform="translate(176.78)" fill="none" stroke="#263238" stroke-miterlimit="10" stroke-width="1"/><line x2="172.159" fill="none" stroke="#263238" stroke-miterlimit="10" stroke-width="1"/></g><g transform="translate(42.871 39.254)"><rect width="116.6" height="216.001" transform="translate(1.086 10.988)" fill="#fff"/><path d="M299.791,57.835a1.444,1.444,0,0,0,1.444-1.439V41.988a1.444,1.444,0,0,0-1.444-1.439,1.334,1.334,0,0,0-.266,0V13.64a9.29,9.29,0,0,0-9.29-9.29H187.894a9.29,9.29,0,0,0-9.284,9.29V231.028a9.284,9.284,0,0,0,9.284,9.284H290.236a9.284,9.284,0,0,0,9.29-9.284V98.772a1.334,1.334,0,0,0,.266.029,1.439,1.439,0,0,0,1.444-1.439V82.96a1.439,1.439,0,0,0-1.444-1.439,1.341,1.341,0,0,0-.266,0V78.268a1.341,1.341,0,0,0,.266,0,1.439,1.439,0,0,0,1.444-1.439V62.5a1.439,1.439,0,0,0-1.444-1.439,1.334,1.334,0,0,0-.266,0V57.806a1.334,1.334,0,0,0,.266.029Zm-5.644,168.473H183.989V20.376H294.147Z" transform="translate(-178.61 -4.35)" fill="#263238"/><rect width="9.134" height="5.009" transform="translate(102.66 18.164)" fill="none" stroke="#263238" stroke-linecap="round" stroke-linejoin="round" stroke-width="0.82"/><rect width="7.123" height="5.009" transform="translate(102.66 18.164)" fill="#263238" stroke="#263238" stroke-linecap="round" stroke-linejoin="round" stroke-width="0.73"/><rect width="1.288" height="2.207" transform="translate(111.77 19.562)" fill="#263238" stroke="#263238" stroke-linecap="round" stroke-linejoin="round" stroke-width="0.73"/><rect width="1.675" height="2.871" transform="translate(7.863 19.718)" fill="#263238" stroke="#263238" stroke-linecap="round" stroke-linejoin="round" stroke-width="0.88"/><rect width="1.675" height="3.876" transform="translate(10.491 18.707)" fill="#263238" stroke="#263238" stroke-linecap="round" stroke-linejoin="round" stroke-width="0.88"/><rect width="1.675" height="5.072" transform="translate(13.126 17.517)" fill="#263238" stroke="#263238" stroke-linecap="round" stroke-linejoin="round" stroke-width="0.88"/></g><g transform="translate(166.718 89.296)"><path d="M287.542,68.465s-8.492-1.1-9.573,6.914c-.826,5.961,1.92,8.9-.228,13.7s1.88,9.089,1.88,9.089,10.036,4.659,20.931-4.874Z" transform="translate(-225.819 -69.801)" fill="#00245d"/><path d="M1971.813,502.448s-2.213-7.137-3.469-7.906c-.509-.311-1.872-.961-3.417-1.677v4.245c.707,1.127,1.194,2.247.707,1.76s-3.142-2.123-3.42-1.76,1.325,1.76,2.094,2.876,1.6,3,4.326,3.419S1971.813,502.448,1971.813,502.448Z" transform="translate(-1955.292 -456.67)" fill="#ffb27d"/><path d="M2384.94,840.956s-.663,6.448-1.4,7.668-3.827,5.115-5.148,5.88.8-5.135.538-6.282-1.086,2.093-1.667,2.171-.431-2.844-.454-3.9,2.831-3.685,3.837-5.948S2384.94,840.956,2384.94,840.956Z" transform="translate(-2287.769 -735.077)" fill="#ffb27d"/><path d="M2055.876,511.189s-5.361,26.313-34.864,34.912c-9.21,2.682-30.132-27.638-30.132-27.638s.735-2.8,5.343-2.153c0,0,20.373,13.486,22.938,14.952,2.275,1.3,17.241-16.712,24.064-19.616A17.423,17.423,0,0,1,2055.876,511.189Z" transform="translate(-1978.925 -471.465)" fill="#be292f"/><path d="M2439.515,1336.884s3.659,3.339,2.946,5.712-4.019,3.955-4.464,6.857-2.231,4.482-3.839,4.482h-7.66s-1.183-2.041,1.674-2.657,3.933-4.025,3.755-7.19a56.017,56.017,0,0,1,.268-7.39l6.07-1.4Z" transform="translate(-2327.34 -1131.741)" fill="#0a1630"/><path d="M2181.6,1374.682s.657,7.6-.948,8.389l-20.573-.042s0-2.375,3.3-2.9,9.1-2.461,10.087-6.767S2181.6,1374.682,2181.6,1374.682Z" transform="translate(-2114.33 -1160.901)" fill="#0a1630"/><path d="M2180.91,841.486s1.085,13.324,2.359,29.341c1.734,21.757,3.817,48.484,4.023,53.545.356,8.788,1.786,22.856,1.786,22.856s3.4,3.342,10.176,1.933a226.928,226.928,0,0,0,7.776-41.318c.026-.348.052-.7.08-1.049,1.6-21.623,4.1-67.155,4.1-67.155Z" transform="translate(-2130.999 -735.083)" fill="#00245d"/><path d="M2180.91,841.486s1.085,13.324,2.359,29.341l23.769,37.017c.026-.348.052-.7.08-1.049,1.6-21.623,4.1-67.155,4.1-67.155Z" transform="translate(-2130.999 -735.083)" fill="#02183b"/><path d="M2205.71,821.932s19.55,48.256,32.4,70.935,16.872,29.008,16.872,29.008,7.367-2.9,8.036-4.879c0,0-4.916-43.78-13.524-54.452-4.866-6.032-10.586-24.13-10.846-30.458s-1.741-18.855-1.741-18.855Z" transform="translate(-2150.846 -713.948)" fill="#00245d"/><path d="M2250.935,420.225s-13.229,6.392-20.855,4.015a18,18,0,0,1,5.163-4.129c-.266-1.532-.469-2.86-.587-3.995a36.692,36.692,0,0,1-.323-4.071l5.1-4.015,4.84-3.841C2243.9,415,2250.935,420.225,2250.935,420.225Z" transform="translate(-2170.348 -386.608)" fill="#ffb27d"/><path d="M2214.132,540.6c.028.8-1.7,1.732-2.464,2.077a53.91,53.91,0,0,1-16.924,4.794c-7.067.721-15.427-.867-18.3-.8a1.2,1.2,0,0,1-.8-.318c-.2-.144,2.523-8.521,2.674-19.231,0-.431.03-1.442.03-1.442.058-4.194.2-8.579.41-12.969.411-9.645-4.4-12.806-3.114-17.945,1.554-6.066,7.78-16.362,10.976-19.28l2.641-2.321a12.693,12.693,0,0,0,8.213-.981c3.05-1.472,6.335-3.062,6.863-2.657,3.995,2.916,6.687,9.472,8.125,17.846a.686.686,0,0,0,.021.124,93.329,93.329,0,0,1,1.181,15.759c0,2.081-.06,4.216-.175,6.326a185.278,185.278,0,0,0,.2,23.944c.076,1.164.154,2.225.22,3.174C2214.014,538.378,2214.1,539.682,2214.132,540.6Z" transform="translate(-2126.574 -438.849)" fill="#e31b23"/><path d="M2261.4,423.716s-3.344,6.094-9.707,7.79a36.691,36.691,0,0,1-.323-4.071l5.1-4.015Z" transform="translate(-2187.386 -401.997)" fill="#ed985f"/><path d="M2230.541,365.967s16.088,2.633,17.6-7.257,4.6-16.211-5.6-18.309-12.784,1.378-14.1,4.558S2226.395,365.032,2230.541,365.967Z" transform="translate(-2170.619 -337.908)" fill="#ffb27d"/><path d="M2296.106,469.45s7.99,3.781,11.812,9.587c5.938,9.016,12.822,41.875,12.949,44.917s-5.023,24.524-5.023,24.524-5.225-.344-6.573-2.98c0,0,1.045-22.073.383-23.491s-21.771-29.607-19.4-35.621S2296.106,469.45,2296.106,469.45Z" transform="translate(-2218.351 -438.833)" fill="#dd1820"/><path d="M8.5,9.455c-1.019.17-2.927-.2-5.516-.923C.42,7.815-.506,6,.261,3.448A4.817,4.817,0,0,1,6.254.2C8.1.753,11.141,4,11.941,6.447,11.967,6.812,9.97,9.237,8.5,9.455Z" transform="translate(6.755 35.008) rotate(17)" fill="#ffb27d"/><path d="M7.554,3.738,1.4.161A.908.908,0,0,0,.15.378h0A.794.794,0,0,0,.282,1.45L5.053,5.486Z" transform="translate(7.277 31.849) rotate(17)" fill="#ffb27d"/><path d="M292.952,68.263c-10.741,4.948,4.981,16.742,4.981,16.742l2.529,1.474,1.895-10.2S294.751,67.431,292.952,68.263Z" transform="translate(-229.792 -69.732)" fill="#00245d"/><path d="M303.922,86.779a47.825,47.825,0,0,1,.114,10.07s13.554,4.343,19.689-11.083c0,0-3.934-1.517-5.142-4.9s0-15.145-15.843-14.769C302.767,66.069,303.17,81.388,303.922,86.779Z" transform="translate(-234.243 -69.035)" fill="#00245d"/><path d="M299.074,81.919c.208-1.638,1.343-13.043-7.223-11.567a1.228,1.228,0,0,1-.859-2.249c3.054-1.906,7.9-3.222,14.916-.524,2.846,1.121,6.767,4.847,6.767,8.505,0,7.915-2.632,11.929-7.27,16a.483.483,0,0,1-.759-.141l-2.987-5.773a.244.244,0,0,1,0-.06,20.665,20.665,0,0,0-2.457-3.86A.483.483,0,0,1,299.074,81.919Z" transform="translate(-230.194 -69.023)" fill="#00245d"/></g><g transform="translate(0.609 36.99)"><rect width="70.729" height="60.655" rx="7.93" transform="translate(57.691 158.856)" fill="#ccd3df"/><rect width="17.862" height="17.862" rx="3.15" transform="translate(67.585 167.344)" fill="#fff"/><line x2="16.148" transform="translate(91.538 172.981)" fill="none" stroke="#00245d" stroke-linecap="round" stroke-linejoin="round" stroke-width="1.3"/><line x2="26.035" transform="translate(91.538 178.729)" fill="none" stroke="#00245d" stroke-linecap="round" stroke-linejoin="round" stroke-width="1.3"/><line x2="17.856" transform="translate(67.585 192.643)" fill="none" stroke="#fff" stroke-linecap="round" stroke-linejoin="round" stroke-width="1.3"/><line x2="49.988" transform="translate(67.585 198.576)" fill="none" stroke="#fff" stroke-linecap="round" stroke-linejoin="round" stroke-width="1.3"/><line x2="49.988" transform="translate(67.585 205.114)" fill="none" stroke="#fff" stroke-linecap="round" stroke-linejoin="round" stroke-width="1.3"/></g><circle cx="14.325" cy="14.325" r="14.325" transform="matrix(0.232, -0.973, 0.973, 0.232, 0.609, 104.957)" fill="#e31b23"/><path d="M19.64,137.3l4.5,3.332,7.7-7.992" transform="translate(-7.543 -42.271)" fill="none" stroke="#fff" stroke-linecap="round" stroke-linejoin="round" stroke-width="2.14"/><rect width="54.226" height="39.678" rx="5.19" transform="translate(22.727 132.298)" fill="#667b9e"/><path d="M84.744,223.843a8.572,8.572,0,1,0-15.954,4.328h0v.03a8.742,8.742,0,0,0,1.159,1.533l6.205,8.222,6.236-8.216a8.788,8.788,0,0,0,1.147-1.545h0a8.566,8.566,0,0,0,1.207-4.352Zm-8.572,3.731a3.772,3.772,0,1,1,.012,0Z" transform="translate(-26.552 -74.933)" fill="#fff"/><rect width="92.286" height="64.655" rx="7.93" transform="translate(56.997 65.807)" fill="#00245d"/><rect width="15.659" height="15.659" rx="2.76" transform="translate(64.288 85.264)" fill="#ccd3df"/><rect width="15.659" height="15.659" rx="2.76" transform="translate(84.239 85.264)" fill="#ccd3df"/><rect width="15.659" height="15.659" rx="2.76" transform="translate(104.19 85.264)" fill="#ccd3df"/><rect width="15.659" height="15.659" rx="2.76" transform="translate(124.14 84.264)" fill="#e31b23"/><rect width="15.659" height="15.659" rx="2.76" transform="translate(64.288 106.392)" fill="#ccd3df"/><rect width="15.659" height="15.659" rx="2.76" transform="translate(84.239 106.392)" fill="#ccd3df"/><rect width="15.659" height="15.659" rx="2.76" transform="translate(104.19 106.392)" fill="#ccd3df"/><rect width="15.659" height="15.659" rx="2.76" transform="translate(124.14 106.392)" fill="#ccd3df"/><path d="M3.541-4.382H2.126V0H1.552V-4.382H.14V-4.9h3.4ZM4.87-4.389a.355.355,0,0,1-.256-.1.346.346,0,0,1-.106-.26.352.352,0,0,1,.106-.261.352.352,0,0,1,.256-.1.362.362,0,0,1,.261.1.349.349,0,0,1,.108.261.346.346,0,0,1-.108.256A.359.359,0,0,1,4.87-4.389ZM5.143,0H4.582V-3.5h.561ZM11.6,0h-.561V-2.01a1.516,1.516,0,0,0-.179-.841.681.681,0,0,0-.6-.26.747.747,0,0,0-.61.328A1.255,1.255,0,0,0,9.391-2V0H8.83V-2.078q0-1.032-.8-1.032a.738.738,0,0,0-.608.309,1.279,1.279,0,0,0-.239.8V0H6.625V-3.5h.561v.554H7.2a1.189,1.189,0,0,1,1.087-.636,1.013,1.013,0,0,1,.625.2,1.006,1.006,0,0,1,.366.525,1.249,1.249,0,0,1,1.162-.725q1.155,0,1.155,1.425Zm4.22-1.61H13.344a1.309,1.309,0,0,0,.314.9,1.084,1.084,0,0,0,.827.318,1.72,1.72,0,0,0,1.087-.39v.526a2.031,2.031,0,0,1-1.22.335,1.479,1.479,0,0,1-1.166-.477,1.952,1.952,0,0,1-.424-1.342,1.914,1.914,0,0,1,.463-1.331,1.485,1.485,0,0,1,1.15-.514,1.316,1.316,0,0,1,1.063.444A1.853,1.853,0,0,1,15.815-1.9Zm-.574-.475a1.14,1.14,0,0,0-.234-.755.8.8,0,0,0-.641-.27.905.905,0,0,0-.673.284,1.287,1.287,0,0,0-.342.742ZM23.647.079A1.021,1.021,0,0,1,23.3.026a1,1,0,0,1-.275-.15,1.59,1.59,0,0,1-.244-.238q-.118-.14-.248-.318A2.5,2.5,0,0,1,22.22-.4a2.332,2.332,0,0,1-.4.243,2.393,2.393,0,0,1-.479.169,2.381,2.381,0,0,1-.564.063A2.348,2.348,0,0,1,20.1-.014a1.5,1.5,0,0,1-.526-.272,1.231,1.231,0,0,1-.34-.443,1.43,1.43,0,0,1-.121-.6,1.384,1.384,0,0,1,.3-.894,2.145,2.145,0,0,1,.841-.607,1.878,1.878,0,0,1-.205-.176,1.252,1.252,0,0,1-.183-.229,1.241,1.241,0,0,1-.13-.284,1.115,1.115,0,0,1-.05-.34,1.118,1.118,0,0,1,.1-.479,1.014,1.014,0,0,1,.268-.352,1.165,1.165,0,0,1,.4-.217,1.658,1.658,0,0,1,.5-.073,1.533,1.533,0,0,1,.487.073,1.115,1.115,0,0,1,.379.21.962.962,0,0,1,.248.328,1,1,0,0,1,.089.427,1.008,1.008,0,0,1-.234.682,1.817,1.817,0,0,1-.7.463,2.053,2.053,0,0,1,.427.226,2.533,2.533,0,0,1,.354.3,3.324,3.324,0,0,1,.3.352q.14.188.277.39A2.874,2.874,0,0,0,23-2.386a3.357,3.357,0,0,0,.14-.974,1.838,1.838,0,0,0-.015-.244,2.217,2.217,0,0,0-.043-.227h.543a1.159,1.159,0,0,1,.032.214q.005.1.012.241a3.086,3.086,0,0,1-.065.625,4.21,4.21,0,0,1-.174.61,4.269,4.269,0,0,1-.255.562,4.542,4.542,0,0,1-.306.489q.12.164.219.285a1.414,1.414,0,0,0,.2.2A.725.725,0,0,0,23.5-.48a.71.71,0,0,0,.244.039.832.832,0,0,0,.208-.027q.106-.027.219-.068v.52a1.369,1.369,0,0,1-.258.072A1.516,1.516,0,0,1,23.647.079ZM20.78-.407a1.914,1.914,0,0,0,.479-.056,1.969,1.969,0,0,0,.4-.15A1.806,1.806,0,0,0,22-.832a2.6,2.6,0,0,0,.273-.261q-.208-.325-.385-.555a3.19,3.19,0,0,0-.355-.4,2.181,2.181,0,0,0-.383-.287,3.179,3.179,0,0,0-.47-.222,3.048,3.048,0,0,0-.4.19,1.323,1.323,0,0,0-.313.246,1.057,1.057,0,0,0-.207.33,1.183,1.183,0,0,0-.075.441.936.936,0,0,0,.085.41.831.831,0,0,0,.234.3,1.031,1.031,0,0,0,.347.178A1.472,1.472,0,0,0,20.78-.407Zm.854-3.49a.615.615,0,0,0-.063-.291.628.628,0,0,0-.161-.2.631.631,0,0,0-.217-.115.818.818,0,0,0-.236-.036.766.766,0,0,0-.535.181.641.641,0,0,0-.2.492.8.8,0,0,0,.043.263.878.878,0,0,0,.12.229.967.967,0,0,0,.179.188,1.23,1.23,0,0,0,.219.14,1.8,1.8,0,0,0,.643-.35A.664.664,0,0,0,21.634-3.9ZM27.566,0V-4.9h1.354q2.591,0,2.591,2.389a2.408,2.408,0,0,1-.719,1.823A2.669,2.669,0,0,1,28.864,0Zm.574-4.382V-.52h.731a2.076,2.076,0,0,0,1.5-.516A1.935,1.935,0,0,0,30.908-2.5q0-1.883-2-1.883ZM35.252,0h-.561V-.547h-.014A1.174,1.174,0,0,1,33.6.082a1.151,1.151,0,0,1-.819-.277.959.959,0,0,1-.3-.735q0-.981,1.155-1.142l1.049-.147q0-.892-.721-.892a1.723,1.723,0,0,0-1.142.431v-.574a2.169,2.169,0,0,1,1.189-.328q1.234,0,1.234,1.306Zm-.561-1.771-.844.116a1.371,1.371,0,0,0-.588.193.557.557,0,0,0-.2.49.534.534,0,0,0,.183.419.707.707,0,0,0,.487.162.9.9,0,0,0,.689-.292,1.044,1.044,0,0,0,.272-.74ZM38.279-.034a1.081,1.081,0,0,1-.523.109q-.919,0-.919-1.025V-3.021h-.6V-3.5h.6v-.854l.561-.181V-3.5h.882v.479H37.4v1.972a.818.818,0,0,0,.12.5.477.477,0,0,0,.4.15.589.589,0,0,0,.366-.116ZM42.188-1.61H39.717a1.309,1.309,0,0,0,.314.9,1.084,1.084,0,0,0,.827.318,1.72,1.72,0,0,0,1.087-.39v.526a2.031,2.031,0,0,1-1.22.335A1.479,1.479,0,0,1,39.56-.395a1.952,1.952,0,0,1-.424-1.342A1.914,1.914,0,0,1,39.6-3.068a1.485,1.485,0,0,1,1.15-.514,1.316,1.316,0,0,1,1.063.444A1.853,1.853,0,0,1,42.188-1.9Zm-.574-.475a1.14,1.14,0,0,0-.234-.755.8.8,0,0,0-.641-.27.905.905,0,0,0-.673.284,1.287,1.287,0,0,0-.342.742Z" transform="translate(81.997 77.795)" fill="#ccd3df"/><g transform="translate(0.609 34.99)"><g transform="matrix(1, 0, 0, 1, 0, 1.75)" filter="url(#a)"><rect width="60.377" height="39.678" rx="5.19" transform="translate(88 104.56)" fill="#fff"/></g><rect width="46.227" height="9.019" rx="2.76" transform="translate(95.607 110.812)" fill="#ccd3df"/><line x2="21.067" transform="translate(96.21 125.74)" fill="none" stroke="#00245d" stroke-linecap="round" stroke-linejoin="round" stroke-width="1.3"/><line x2="45.02" transform="translate(96.21 130.871)" fill="none" stroke="#00245d" stroke-linecap="round" stroke-linejoin="round" stroke-width="1.3"/><line x2="45.02" transform="translate(96.21 136.527)" fill="none" stroke="#00245d" stroke-linecap="round" stroke-linejoin="round" stroke-width="1.3"/></g><rect width="38.99" height="34.824" rx="6.31" transform="translate(139.696 197.758)" fill="#e31b23"/><path d="M265.416,332.125l-1.28-.223a6.641,6.641,0,0,0-.664-1.6l.749-1.062a.99.99,0,0,0-.109-1.262l-.773-.767a.978.978,0,0,0-1.256-.091l-1.068.749a6.7,6.7,0,0,0-1.594-.664l-.217-1.31a1,1,0,0,0-.954-.815h-1.1a.99.99,0,0,0-.972.815l-.223,1.28a6.821,6.821,0,0,0-1.594.658l-1.081-.712a.99.99,0,0,0-1.262.109l-.767.767a.978.978,0,0,0-.109,1.262l.749,1.068a6.593,6.593,0,0,0-.664,1.594l-1.274.223a.99.99,0,0,0-.821.972V334.2a.99.99,0,0,0,.821.972l1.274.223a6.694,6.694,0,0,0,.664,1.594l-.749,1.062a.978.978,0,0,0,.109,1.262l.767.767a.978.978,0,0,0,1.262.109l1.062-.742a6.64,6.64,0,0,0,1.6.658l.223,1.28a.978.978,0,0,0,.972.815h1.1a.99.99,0,0,0,.972-.815l.223-1.28a6.575,6.575,0,0,0,1.594-.658l1.044.73a.978.978,0,0,0,1.256-.115l.773-.767a.978.978,0,0,0,.109-1.256l-.749-1.074a6.7,6.7,0,0,0,.664-1.594l1.28-.229a.978.978,0,0,0,.815-.966V333.09A.978.978,0,0,0,265.416,332.125Zm-7.727,4.908a3.4,3.4,0,1,1,3.4-3.4h0a3.392,3.392,0,0,1-3.4,3.4Z" transform="translate(-98.502 -118.466)" fill="#fff"/></g></svg>